<svg xmlns="http://www.w3.org/2000/svg" xmlns:xlink="http://www.w3.org/1999/xlink" width="1920" zoomAndPan="magnify" viewBox="0 0 1440 809.999993" height="1080" preserveAspectRatio="xMidYMid meet" version="1.0"><defs><clipPath id="2d9083495a"><path d="M 373 41.027344 L 1067 41.027344 L 1067 769 L 373 769 Z M 373 41.027344 " clip-rule="nonzero"/></clipPath></defs><path fill="#38b6ff" d="M 711.488281 670.191406 C 711.488281 670.191406 713.183594 679.78125 713.265625 681.726562 C 713.316406 683.539062 708.878906 685.234375 700.601562 688.023438 C 691.878906 687.84375 687.125 687.542969 686.644531 685.796875 C 686.128906 683.921875 684.882812 674.28125 684.882812 674.28125 C 684.882812 674.28125 683.1875 664.707031 683.121094 662.746094 C 683.054688 660.953125 687.492188 659.238281 695.765625 656.449219 C 704.492188 656.628906 709.246094 656.929688 709.726562 658.675781 C 710.242188 660.554688 711.488281 670.191406 711.488281 670.191406 Z M 532 601.902344 C 536.691406 609.265625 539.011719 613.46875 537.710938 614.914062 C 537.003906 615.714844 534.660156 617.824219 532.453125 619.703125 C 530.230469 621.546875 528.207031 623.226562 528.207031 623.226562 C 528.207031 623.226562 526.214844 624.9375 524.019531 626.832031 C 521.800781 628.675781 519.332031 630.65625 518.4375 631.203125 C 516.789062 632.25 513.035156 629.257812 506.554688 623.410156 C 502.542969 615.628906 500.472656 611.359375 501.757812 610.078125 C 502.453125 609.382812 504.746094 607.570312 506.835938 605.875 C 508.933594 604.195312 510.835938 602.667969 510.835938 602.667969 C 510.835938 602.667969 512.660156 601.039062 514.671875 599.261719 C 516.675781 597.480469 518.851562 595.519531 519.648438 594.957031 C 521.132812 593.890625 525.007812 596.652344 532 601.902344 Z M 438.148438 385.667969 C 443.964844 392.648438 447.234375 396.269531 446.03125 398.996094 C 445.382812 400.472656 443.253906 404.8125 441.679688 408.96875 C 440.070312 413.089844 438.960938 416.976562 438.960938 416.976562 C 438.960938 416.976562 437.921875 420.898438 437.183594 425.269531 C 436.390625 429.640625 436 434.460938 435.800781 436.058594 C 435.4375 439 430.777344 440.445312 422.199219 443.453125 C 413.578125 440.742188 408.921875 438.316406 408.929688 434.460938 C 408.921875 432.367188 409.4375 426.117188 410.519531 420.484375 C 411.539062 414.816406 413.011719 409.816406 413.011719 409.816406 C 413.011719 409.816406 414.316406 404.761719 416.335938 399.394531 C 418.304688 394.007812 421.078125 388.359375 422.148438 386.582031 C 424.121094 383.257812 429.359375 383.554688 438.148438 385.667969 Z M 486.695312 199.296875 C 482.769531 191.308594 480.878906 186.777344 482.816406 184.8125 C 484.90625 182.683594 496.273438 173.046875 496.273438 173.046875 C 496.273438 173.046875 507.347656 163.078125 509.738281 161.289062 C 511.945312 159.640625 516.175781 162.121094 523.566406 167.089844 C 527.492188 175.074219 529.382812 179.597656 527.449219 181.566406 C 525.355469 183.6875 513.988281 193.324219 513.988281 193.324219 C 513.988281 193.324219 502.914062 203.292969 500.523438 205.085938 C 498.316406 206.734375 494.085938 204.261719 486.695312 199.296875 Z M 675.875 90.332031 C 676.042969 81.226562 676.890625 76.058594 680.648438 74.773438 C 682.675781 74.070312 688.90625 72.410156 694.707031 71.304688 C 700.507812 70.15625 705.824219 69.5 705.824219 69.5 C 705.824219 69.5 711.125 68.691406 717.027344 68.222656 C 722.910156 67.714844 729.359375 67.632812 731.484375 67.753906 C 735.457031 67.980469 737.667969 72.71875 740.292969 81.445312 C 736.804688 89.898438 734.84375 94.480469 731.46875 94.675781 C 729.640625 94.78125 724.125 94.851562 719.105469 95.234375 C 714.070312 95.578125 709.496094 96.171875 709.496094 96.171875 C 709.496094 96.171875 704.960938 96.839844 700.023438 97.863281 C 695.074219 98.863281 689.753906 100.277344 687.960938 100.683594 C 684.652344 101.410156 681.542969 97.519531 675.875 90.332031 Z M 886.378906 167.191406 C 884.085938 165.621094 885.097656 160.816406 887.441406 152.226562 C 893.773438 145.96875 897.480469 142.742188 899.972656 143.957031 C 902.667969 145.277344 915.464844 153.035156 915.464844 153.035156 C 915.464844 153.035156 928.507812 160.402344 930.96875 162.101562 C 933.246094 163.679688 932.25 168.488281 929.90625 177.070312 C 923.558594 183.332031 919.867188 186.558594 917.375 185.335938 C 914.683594 184.027344 901.867188 176.269531 901.867188 176.269531 C 901.867188 176.269531 888.839844 168.898438 886.378906 167.191406 Z M 1020.863281 404.734375 C 1020.863281 404.734375 1020.515625 420.953125 1020.167969 424.179688 C 1019.851562 427.171875 1015.148438 428.699219 1006.453125 430.894531 C 997.960938 428.085938 993.359375 426.222656 993.277344 423.230469 C 993.160156 419.972656 993.957031 403.769531 993.957031 403.769531 C 993.957031 403.769531 994.324219 387.550781 994.65625 384.308594 C 994.972656 381.332031 999.691406 379.804688 1008.367188 377.609375 C 1016.875 380.417969 1021.460938 382.28125 1021.5625 385.273438 C 1021.679688 388.53125 1020.863281 404.734375 1020.863281 404.734375 Z M 949.101562 555.023438 C 953.804688 562.6875 956.296875 566.90625 954.601562 569.234375 C 953.65625 570.464844 950.78125 574.136719 948.136719 577.511719 C 945.527344 580.902344 943.269531 584.074219 943.269531 584.074219 C 943.269531 584.074219 941.089844 587.300781 938.8125 590.9375 C 936.585938 594.59375 934.144531 598.566406 933.328125 599.898438 C 931.734375 602.289062 926.914062 601.441406 918.105469 599.714844 C 911.675781 593.464844 908.484375 589.542969 909.914062 586.617188 C 910.675781 585.039062 913.320312 580.453125 915.960938 576.398438 C 918.570312 572.308594 921.148438 568.734375 921.148438 568.734375 C 921.148438 568.734375 923.605469 565.078125 926.515625 561.191406 C 929.390625 557.300781 932.765625 553.210938 933.976562 551.933594 C 936.222656 549.589844 941.007812 551.203125 949.101562 555.023438 Z M 856.730469 288.878906 C 855.933594 287.75 854.851562 286.285156 853.621094 284.675781 C 855.285156 286.003906 856.894531 287.351562 858.441406 288.730469 C 857.910156 288.761719 857.328125 288.8125 856.730469 288.878906 Z M 850.097656 532.289062 C 850.066406 531.40625 850.015625 530.3125 849.964844 529 C 850.898438 530.394531 851.894531 531.808594 852.972656 533.285156 C 852.890625 533.453125 852.792969 533.636719 852.707031 533.785156 C 851.410156 536.277344 850.5625 538.605469 850.015625 540.949219 C 849.78125 541.296875 849.515625 541.644531 849.25 541.996094 C 849.917969 539.054688 850.214844 535.894531 850.097656 532.289062 Z M 743.003906 164.082031 C 743.367188 165.316406 743.535156 167.257812 743.269531 169.402344 C 743.152344 170.078125 743.003906 170.777344 742.804688 171.464844 C 740.992188 171.140625 739.148438 171.050781 737.1875 171.207031 C 739.5625 167.804688 741.558594 164.964844 742.503906 163.609375 C 742.585938 163.492188 742.652344 163.375 742.71875 163.257812 C 742.820312 163.503906 742.917969 163.773438 743.003906 164.082031 Z M 922.992188 466.175781 C 923.738281 463.019531 924.222656 460.410156 924.570312 458.582031 C 924.917969 456.769531 925.121094 455.738281 925.121094 455.738281 C 925.121094 455.738281 925.285156 454.707031 925.585938 452.898438 C 925.898438 451.070312 926.347656 448.460938 926.765625 445.285156 C 927.628906 438.921875 928.507812 430.261719 928.875 421.238281 C 929.722656 403.136719 928.210938 383.675781 927.460938 377.277344 C 926.464844 368.355469 923.074219 362.636719 917.226562 356.835938 C 916.492188 352.53125 914.832031 344.804688 912.671875 337.757812 C 910.113281 329.183594 907.003906 321.671875 907.003906 321.671875 C 907.003906 321.671875 906.289062 319.773438 905.058594 316.882812 C 904.445312 315.421875 903.695312 313.742188 902.847656 311.898438 C 902 310.019531 900.921875 307.84375 899.757812 305.699219 C 897.382812 301.410156 894.40625 296.972656 891.214844 293.351562 C 888.074219 289.710938 884.585938 286.984375 882.707031 285.773438 C 882.707031 285.773438 882.691406 285.773438 882.691406 285.753906 C 882.523438 285.421875 882.375 285.089844 882.207031 284.757812 C 878.300781 277.164062 873.214844 269.71875 866.21875 262.96875 C 859.257812 256.207031 850.546875 249.90625 839.546875 245.152344 C 836.871094 243.859375 833.347656 242.808594 829.207031 241.398438 C 827.082031 240.847656 824.769531 240.269531 822.277344 239.636719 C 819.785156 239.085938 817.125 238.722656 814.285156 238.222656 C 802.949219 236.660156 788.972656 236.792969 773.199219 237.574219 C 766.269531 237.859375 758.144531 238.222656 750.265625 237.941406 C 742.355469 237.691406 734.726562 236.679688 728.445312 234.75 C 727.511719 234.535156 726.648438 234.203125 725.800781 233.871094 C 725.800781 233.488281 725.800781 233.136719 725.816406 232.804688 C 725.902344 230.3125 726.152344 229.050781 725.417969 228.25 L 725.402344 228.25 C 725.652344 227.851562 725.917969 227.453125 726.21875 227.023438 C 728.542969 223.582031 733.246094 218.878906 740.210938 213.527344 C 747.125 207.976562 756.480469 201.238281 763.378906 190.773438 C 765.058594 188.203125 766.535156 185.453125 767.800781 182.222656 C 769.011719 179.125 769.675781 176.046875 770.125 173.074219 C 770.90625 167.121094 770.441406 161.5 769.027344 156.636719 C 767.75 152.113281 765.523438 147.800781 762.464844 144.230469 C 759.4375 140.621094 755.484375 138.007812 751.792969 136.347656 C 744.25 133.222656 738.433594 133.5 734.261719 133.605469 C 732.234375 133.714844 730.539062 133.871094 729.042969 134.046875 C 729.472656 133.214844 729.957031 132.3125 730.65625 131.375 C 731.652344 130.050781 733.246094 128.644531 735.757812 128.3125 C 736.71875 126.015625 736.386719 123.25 735.390625 121.003906 C 734.378906 118.722656 732.832031 116.894531 731.21875 115.535156 C 728.0625 112.792969 724.089844 111.824219 721.3125 111.980469 C 717.890625 112.070312 707.621094 113.089844 698.347656 114.835938 C 689.039062 116.503906 680.78125 118.78125 680.78125 118.78125 C 680.78125 118.78125 672.453125 120.847656 663.527344 123.929688 C 654.570312 126.925781 645.128906 131.058594 642.089844 132.648438 C 639.929688 133.738281 638.417969 135.292969 637.351562 137.335938 C 629.972656 136.953125 624.039062 138.289062 617.707031 143.128906 C 614.433594 145.542969 607.070312 151.671875 599.042969 159.027344 C 598.261719 159.421875 597.464844 159.832031 596.683594 160.242188 C 590.402344 163.46875 584.550781 166.980469 580.347656 169.75 C 578.21875 171.113281 576.507812 172.320312 575.328125 173.160156 C 574.148438 173.996094 573.484375 174.472656 573.484375 174.472656 C 573.484375 174.472656 572.820312 174.964844 571.640625 175.832031 C 570.460938 176.703125 568.765625 177.957031 566.785156 179.585938 C 562.796875 182.800781 557.5625 187.402344 552.558594 192.773438 C 547.523438 198.117188 542.769531 204.230469 539.15625 209.769531 C 535.570312 215.320312 533.089844 220.226562 531.96875 222.71875 C 530.667969 225.609375 530.03125 228.351562 529.980469 231.042969 C 529.617188 231.460938 529.242188 231.875 528.898438 232.289062 C 526.457031 235.066406 524.542969 237.441406 523.214844 239.105469 C 521.886719 240.765625 521.140625 241.714844 521.140625 241.714844 C 521.140625 241.714844 520.410156 242.675781 519.121094 244.371094 C 517.820312 246.085938 515.957031 248.527344 513.855469 251.617188 C 513.101562 252.699219 512.300781 253.894531 511.484375 255.109375 C 509.75 255.875 508.796875 256.738281 508.667969 257.835938 C 508.617188 258.234375 508.570312 258.898438 508.523438 259.695312 C 505.5 264.5 502.304688 270.035156 499.359375 275.933594 C 494.542969 285.472656 490.429688 295.960938 487.710938 305.132812 C 485.609375 312.3125 484.296875 318.613281 483.554688 322.917969 C 480.070312 324.695312 477.175781 326.507812 474.878906 328.617188 C 472.066406 331.410156 470.074219 334.714844 469.261719 339.21875 C 468.332031 344.074219 466.484375 358.882812 466.78125 372.527344 C 466.808594 375.933594 466.886719 379.257812 467.144531 382.316406 C 467.363281 385.390625 467.46875 388.214844 467.808594 390.589844 C 468.367188 395.34375 468.730469 398.417969 468.730469 398.417969 C 468.730469 398.417969 469.214844 401.460938 469.96875 406.195312 C 470.292969 408.574219 470.960938 411.316406 471.578125 414.324219 C 472.164062 417.347656 472.996094 420.574219 473.898438 423.847656 C 477.3125 437.058594 483.128906 450.804688 485.34375 455.222656 C 487.347656 459.347656 490.160156 461.972656 493.625 463.898438 C 493.703125 463.949219 493.800781 463.964844 493.878906 464 C 494.289062 465.261719 494.714844 466.527344 495.121094 467.773438 C 495.792969 469.816406 496.46875 471.828125 497.125 473.789062 C 497.808594 475.75 498.617188 477.59375 499.320312 479.40625 C 500.792969 482.980469 502.007812 486.335938 503.375 489.027344 C 505.96875 494.496094 507.636719 498.019531 507.636719 498.019531 C 507.636719 498.019531 509.492188 501.441406 512.359375 506.777344 C 513.726562 509.46875 515.710938 512.429688 517.730469 515.734375 C 518.769531 517.363281 519.789062 519.125 520.957031 520.820312 C 522.152344 522.515625 523.378906 524.246094 524.621094 526.007812 C 525.878906 527.734375 527.085938 529.546875 528.417969 531.257812 C 529.773438 532.953125 531.136719 534.632812 532.472656 536.292969 C 533.828125 537.957031 535.109375 539.632812 536.464844 541.164062 C 537.847656 542.675781 539.191406 544.15625 540.476562 545.550781 C 545.496094 551.300781 550.300781 555.375 552.511719 557.566406 C 552.875 557.882812 553.242188 558.183594 553.605469 558.480469 C 550.664062 563.898438 549.835938 567.6875 552.027344 570.363281 C 553.492188 572.175781 558.308594 577.226562 563.214844 581.347656 C 568.066406 585.503906 572.867188 588.796875 572.867188 588.796875 C 572.867188 588.796875 577.304688 592.035156 582.65625 595.128906 C 584.136719 596.671875 586.113281 598.617188 588.324219 600.527344 C 592.945312 604.648438 598.597656 608.40625 600.574219 609.484375 C 604.214844 611.480469 608.75 608.589844 615.183594 602.207031 C 615.265625 601.542969 615.347656 600.910156 615.414062 600.296875 C 616.113281 600.761719 616.84375 601.242188 617.59375 601.742188 C 622.046875 598.832031 625.417969 596.40625 627.695312 593.8125 C 632.417969 592.386719 635.125 590.488281 635.675781 587.347656 C 636.105469 584.921875 636.835938 577.558594 636.769531 570.796875 C 636.789062 564.03125 636.15625 557.933594 636.15625 557.933594 C 636.15625 557.933594 635.839844 553.679688 635.027344 548.441406 C 635.640625 541.214844 636.121094 535.296875 636.121094 535.296875 C 636.121094 535.296875 639.148438 503.652344 639.480469 497.304688 C 639.546875 495.910156 639.347656 494.628906 638.914062 493.414062 C 639.214844 493.5 639.480469 493.566406 639.679688 493.597656 C 641.226562 493.863281 642.789062 492.433594 644.300781 489.492188 C 644.464844 489.378906 644.597656 489.226562 644.664062 489.078125 C 644.75 488.863281 644.863281 488.511719 644.980469 488.082031 C 645.796875 486.269531 646.578125 484.027344 647.359375 481.382812 C 646.824219 472.640625 647.457031 468.003906 646.578125 467.574219 C 646.109375 467.324219 644.617188 466.875 643.285156 466.191406 C 641.921875 465.527344 640.792969 464.730469 640.792969 464.730469 C 640.792969 464.730469 639.695312 463.867188 638.699219 462.753906 C 637.667969 461.65625 636.804688 460.34375 636.4375 459.960938 C 636.007812 459.496094 633.996094 460.160156 630.222656 461.222656 C 630.058594 459.230469 629.691406 457.183594 629.058594 454.976562 C 627.449219 449.292969 622.511719 432.273438 618.804688 416.46875 C 616.894531 408.574219 615.316406 400.976562 614.167969 395.359375 C 613.753906 393.351562 613.421875 391.605469 613.136719 390.175781 C 615.414062 386.121094 616.578125 382.03125 616.460938 376.796875 C 616.347656 371.480469 615.898438 355.441406 616.394531 340.765625 C 616.429688 339.535156 616.460938 338.324219 616.496094 337.109375 C 619.1875 335.480469 620.683594 333.902344 620.882812 331.757812 C 621.082031 329.628906 621.480469 323.25 622.378906 317.464844 C 623.210938 311.648438 624.40625 306.445312 624.40625 306.445312 C 624.40625 306.445312 625.6875 301.246094 627.546875 295.695312 C 628.078125 294.046875 628.675781 292.402344 629.257812 290.824219 C 629.722656 290.742188 630.15625 290.65625 630.605469 290.574219 C 630.988281 290.90625 631.351562 291.222656 631.71875 291.523438 C 630.90625 294.929688 630.023438 298.851562 629.242188 302.941406 C 626.832031 314.789062 625.285156 327.902344 624.988281 332.289062 C 624.40625 340.367188 628.792969 345.402344 637.070312 352.234375 C 645.976562 346.101562 650.847656 342.328125 651.777344 334.964844 C 651.796875 334.699219 651.84375 334.402344 651.878906 334.085938 C 651.527344 343.125 650.816406 352.398438 650.632812 355.65625 C 650.449219 358.75 651.328125 361.273438 653.109375 363.816406 C 653.074219 370.03125 653.023438 378.773438 653.175781 381.265625 C 653.390625 384.972656 658.027344 387.050781 666.636719 390.140625 C 675.246094 387.050781 679.882812 384.972656 680.097656 381.265625 C 680.332031 377.277344 680.097656 357.234375 680.097656 357.234375 C 680.097656 357.234375 680.097656 356.488281 680.113281 355.273438 C 681.144531 354.011719 681.710938 352.648438 681.777344 351.070312 C 681.992188 346.183594 681.808594 322.933594 681.777344 320.140625 C 686.332031 316.417969 689.636719 313.445312 691.648438 310.136719 C 691.632812 310.402344 691.617188 310.652344 691.597656 310.902344 C 688.226562 318.3125 686.746094 324.925781 687.792969 334.050781 C 688.589844 341.03125 691.117188 361.957031 692.710938 381.21875 C 694.390625 400.464844 695.304688 418.03125 695.304688 418.03125 C 695.304688 418.03125 695.355469 419.078125 695.421875 420.921875 C 694.339844 420.207031 693.175781 419.476562 691.929688 418.710938 C 683.621094 424.976562 679.167969 429.164062 679.300781 436.195312 C 679.367188 440.101562 679.949219 452.101562 680.496094 462.804688 C 680.046875 462.621094 679.597656 462.4375 679.117188 462.238281 C 670.308594 462.9375 665.472656 463.898438 664.941406 466.558594 C 664.660156 467.988281 664.191406 472.359375 664.011719 476.382812 C 663.976562 477.0625 663.945312 477.710938 663.925781 478.34375 C 663.078125 478.921875 662.632812 479.554688 662.582031 480.253906 C 662.515625 481.515625 662.714844 485.339844 663.144531 488.796875 C 663.261719 489.757812 663.378906 490.707031 663.511719 491.554688 C 662.8125 493.632812 662.546875 495.808594 662.746094 498.285156 C 663.097656 502.589844 664.542969 515.4375 666.003906 527.1875 C 667.550781 538.953125 668.945312 549.640625 668.945312 549.640625 C 668.945312 549.640625 670.375 560.324219 671.9375 572.074219 C 673.167969 580.902344 674.582031 590.308594 675.527344 596.242188 C 671.753906 597.554688 669.644531 598.898438 669.210938 601.078125 C 668.8125 603.4375 668 608.820312 666.621094 614.6875 C 665.273438 620.589844 663.828125 626.871094 662.898438 630.875 C 668.898438 631.359375 673.417969 631.707031 676.410156 631.9375 C 679.382812 632.171875 680.914062 632.253906 680.914062 632.253906 C 680.914062 632.253906 681.511719 632.289062 682.558594 632.339844 C 683.605469 632.421875 685.117188 632.503906 687.046875 632.453125 C 688.757812 632.488281 690.769531 632.386719 692.996094 632.222656 C 693.808594 633.136719 694.738281 633.632812 695.785156 633.652344 C 697.597656 633.71875 703.050781 633.320312 707.917969 632.289062 C 712.789062 631.324219 717.058594 629.828125 717.058594 629.828125 C 717.058594 629.828125 721.363281 628.53125 725.886719 626.4375 C 728.378906 625.339844 730.871094 623.976562 732.863281 622.78125 C 733.613281 623.546875 734.394531 624.328125 735.226562 625.175781 C 739.945312 623.03125 743.652344 621.019531 746.34375 618.59375 C 748.917969 616.167969 750.582031 613.34375 751.0625 609.570312 C 751.628906 605.480469 752.558594 593.066406 752.09375 581.714844 C 751.945312 576.015625 751.445312 570.613281 751.03125 566.640625 C 750.566406 562.667969 750.25 560.109375 750.25 560.109375 C 750.25 560.109375 750.066406 558.878906 749.765625 556.835938 C 752.261719 554.742188 753.523438 552.679688 753.441406 550.121094 C 753.125 545.035156 751.578125 519.574219 751.578125 519.574219 C 751.578125 519.574219 750.914062 494.082031 750.78125 488.976562 C 750.699219 487.300781 750.03125 485.886719 748.851562 484.589844 C 748.835938 483.941406 748.820312 483.292969 748.785156 482.710938 C 748.71875 481.597656 748.636719 480.570312 748.488281 479.605469 C 748.421875 478.988281 748.320312 478.410156 748.222656 477.859375 C 749.933594 476.3125 750.730469 475.265625 750.480469 474.570312 C 750.214844 473.804688 749.136719 471.660156 748.1875 469.683594 C 747.257812 467.6875 746.410156 465.894531 746.410156 465.894531 C 746.410156 465.894531 745.679688 464.015625 744.898438 461.972656 C 744.117188 459.910156 743.320312 457.652344 742.953125 456.9375 C 742.304688 455.671875 737.949219 456.289062 730.007812 457.5 C 729.757812 455.457031 729.558594 453.8125 729.425781 452.78125 C 728.875 448.808594 726.800781 446.035156 723.257812 443.457031 C 722.84375 428.46875 722.195312 416.667969 722.195312 416.667969 C 722.195312 416.667969 721.382812 398.683594 719.703125 378.941406 C 718.574219 364.679688 716.894531 349.558594 715.664062 339.570312 C 720.648438 337.257812 723.308594 335.28125 723.359375 332.507812 C 723.359375 332.207031 723.359375 331.808594 723.34375 331.324219 C 731.402344 327.6875 735.707031 325.277344 735.589844 321.820312 C 735.523438 319.957031 734.992188 314.425781 734.476562 309.289062 C 737.121094 307.660156 741.722656 304.933594 746.34375 302.921875 C 749.183594 301.578125 752.027344 300.5625 754.121094 299.816406 C 756.214844 299.117188 757.578125 298.667969 757.578125 298.667969 C 757.578125 298.667969 758.972656 298.320312 761.117188 297.769531 C 763.277344 297.257812 766.21875 296.589844 769.34375 296.175781 C 775.558594 295.195312 782.40625 295.144531 784.667969 295.09375 C 784.75 295.09375 784.816406 295.078125 784.882812 295.078125 C 785.449219 297.191406 786.429688 298.851562 788.109375 300.179688 C 789.339844 301.179688 791.914062 303.1875 794.921875 305.714844 C 794.9375 305.980469 794.957031 306.246094 794.972656 306.480469 C 795.105469 309.054688 795.386719 310.667969 796.667969 311.765625 C 797.367188 312.378906 798.828125 313.609375 800.671875 315.554688 C 802.5 317.53125 804.660156 320.175781 806.789062 323.117188 C 807.238281 323.714844 807.667969 324.296875 808.085938 324.878906 C 806.871094 330.726562 806.441406 334.566406 808.683594 338.503906 C 809.496094 339.96875 811.125 342.910156 812.839844 346.699219 C 814.433594 350.304688 816.0625 354.710938 817.308594 359.128906 C 815.828125 363.21875 815.113281 367.589844 815.296875 372.90625 C 815.414062 376.449219 815.746094 383.742188 816.160156 392.570312 C 814.332031 396.109375 813.371094 399.863281 813.351562 404.550781 C 813.351562 406.761719 813.386719 410.699219 813.453125 415.601562 C 812.355469 414.605469 811.125 413.558594 809.78125 412.429688 C 800.421875 414.773438 795.222656 416.617188 793.824219 421.6875 C 792.328125 427.171875 786.148438 454.957031 786.148438 454.957031 C 786.148438 454.957031 779.53125 482.644531 778.46875 488.246094 C 778.203125 489.710938 778.320312 491.074219 778.800781 492.417969 C 776.691406 494.246094 775.394531 496.390625 774.945312 499.183594 C 774.378906 502.605469 773.25 512.960938 772.984375 522.484375 C 772.636719 532.023438 773.019531 540.683594 773.019531 540.683594 C 773.019531 540.683594 773.21875 549.339844 774.214844 558.832031 C 775.128906 568.320312 776.957031 578.558594 777.753906 581.929688 C 778.152344 583.691406 778.902344 585.15625 779.949219 586.417969 C 779.929688 587.433594 779.914062 588.414062 779.898438 589.359375 C 779.832031 594.03125 780.03125 598.335938 780.28125 600.527344 C 781.09375 608.523438 787.445312 613.957031 797.746094 615.121094 C 799.09375 612.710938 800.457031 610.816406 801.71875 609.1875 C 810.394531 612.027344 815.296875 613.34375 818.007812 610.535156 C 819.453125 608.972656 823.757812 604.285156 827.695312 599.996094 C 828.957031 598.652344 830.171875 597.371094 831.269531 596.222656 C 834.375 597.039062 836.453125 597.039062 837.667969 595.757812 C 838.796875 594.5625 842.003906 590.722656 845.03125 587.300781 C 846.078125 586.136719 847.074219 585.039062 847.953125 584.058594 C 849.234375 582.878906 850.5625 581.632812 851.945312 580.320312 C 852.808594 579.703125 853.6875 579.089844 854.570312 578.457031 C 861.699219 573.324219 867.597656 567.953125 867.597656 567.953125 C 867.597656 567.953125 873.683594 562.769531 879.648438 556.335938 C 885.699219 549.972656 891.464844 542.308594 893.191406 539.632812 C 894.804688 537.175781 895.105469 534.566406 894.375 531.542969 C 894.707031 531.125 895.019531 530.710938 895.355469 530.261719 C 897.347656 527.484375 901.136719 521.820312 905.09375 514.539062 C 909.015625 507.261719 913.019531 498.402344 916.144531 489.675781 C 919.285156 480.984375 921.546875 472.492188 922.992188 466.175781 " fill-opacity="1" fill-rule="nonzero"/><g clip-path="url(#2d9083495a)"><path fill="#0158c8" d="M 675.773438 711.65625 C 675.375 704.695312 674.742188 699.210938 674.3125 695.488281 C 673.847656 691.746094 673.613281 689.769531 673.613281 689.769531 C 673.613281 689.769531 672.78125 683.902344 671.203125 672.453125 C 669.558594 660.917969 667.5625 643.5 666.167969 620.914062 C 664.722656 598.28125 663.589844 570.324219 662.828125 537.335938 C 662.460938 520.847656 662.179688 503.101562 662.046875 484.121094 C 662.011719 479.382812 661.980469 474.5625 661.964844 469.660156 C 661.945312 467.21875 661.945312 464.742188 661.945312 462.265625 L 661.945312 455.351562 L 661.964844 453.472656 C 662.03125 453.207031 661.8125 452.742188 662.097656 452.675781 L 663.078125 452.527344 C 664.371094 452.378906 665.6875 452.175781 667.015625 451.945312 L 668.011719 451.796875 L 668.511719 451.710938 L 668.675781 451.644531 L 669.34375 451.378906 C 669.839844 451.230469 670.023438 450.996094 670.390625 450.816406 C 671.039062 450.382812 671.683594 449.851562 672.300781 449.167969 C 673.53125 447.824219 674.660156 446.027344 675.625 444.050781 C 677.601562 440.0625 678.683594 435.34375 679.945312 430.105469 C 685.796875 405.941406 690.148438 375.347656 688.089844 342.773438 C 687.589844 334.628906 686.59375 326.402344 685.261719 318.175781 L 684.117188 311.992188 C 683.949219 310.960938 683.71875 309.949219 683.484375 308.917969 L 683.320312 308.152344 L 683.300781 308.085938 C 682.6875 322.527344 682.089844 337.070312 681.492188 351.332031 C 680.941406 363.03125 680.394531 374.28125 679.945312 383.855469 C 679.8125 386.28125 679.710938 388.492188 679.613281 390.417969 C 679.5625 391.582031 679.445312 392.847656 679.246094 393.859375 C 679.199219 394.125 679.164062 394.375 679.097656 394.625 C 679.015625 394.988281 678.929688 395.355469 678.832031 395.703125 C 678.664062 396.402344 678.5 397.066406 678.265625 397.648438 C 677.683594 399.609375 676.703125 401.207031 675.707031 402.585938 C 674.628906 403.863281 673.445312 404.796875 672.132812 405.410156 C 669.390625 406.589844 666.234375 405.976562 664.089844 404.296875 C 661.761719 402.769531 660.382812 400.273438 659.636719 397.417969 L 659.171875 395.273438 C 659.070312 394.691406 659.054688 394.277344 658.988281 393.777344 C 658.886719 392.761719 658.871094 392.015625 658.855469 391.183594 C 658.804688 389.953125 658.839844 388.757812 658.886719 387.5625 C 658.472656 386.515625 658.089844 385.449219 657.726562 384.386719 C 656.792969 381.496094 656.03125 378.46875 655.449219 375.195312 C 655.230469 377.007812 654.984375 378.871094 654.601562 380.863281 C 654.300781 382.308594 653.984375 383.820312 653.585938 385.351562 C 653.488281 385.816406 652.957031 387.742188 652.523438 389.023438 C 652.089844 390.484375 651.609375 391.898438 651.078125 393.261719 C 650.59375 394.742188 649.980469 395.921875 649.398438 397.234375 C 648.800781 398.464844 648.050781 399.160156 647.386719 400.09375 C 646.707031 400.757812 646.15625 401.488281 645.359375 402.101562 C 644.5625 402.75 643.714844 403.183594 642.882812 403.484375 C 642.019531 403.714844 641.238281 403.863281 640.074219 403.699219 C 639.078125 403.53125 638.511719 403.265625 637.796875 402.867188 C 636.433594 402.070312 635.289062 400.292969 634.375 397.683594 C 633.460938 395.089844 632.894531 391.667969 632.546875 388.125 C 632.445312 387.230469 632.363281 386.332031 632.3125 385.484375 L 632.164062 383.289062 L 632.03125 380.480469 C 631.832031 376.839844 631.617188 373.152344 631.417969 369.460938 C 630.949219 362.050781 630.570312 354.589844 630.320312 347.359375 C 630.019531 340.128906 629.753906 333.183594 629.488281 326.785156 C 629.390625 323.59375 629.207031 320.519531 629.1875 317.675781 C 629.15625 316.28125 629.121094 314.917969 629.089844 313.605469 C 629.074219 312.65625 629.089844 313.121094 629.074219 313.007812 L 629.074219 313.023438 C 629.089844 313.074219 629.105469 313.054688 629.105469 313.007812 C 629.105469 312.773438 628.824219 311.195312 627.726562 312.539062 C 627.660156 312.605469 627.578125 312.808594 627.496094 312.957031 L 627.160156 314.035156 L 626.628906 315.78125 C 627.675781 323.675781 628.058594 331.386719 627.527344 342.023438 C 626.945312 353.058594 625.75 375.179688 624.304688 402.136719 C 623.921875 409.882812 623.722656 417.625 624.953125 425.003906 C 625.582031 428.710938 626.53125 432.25 628.027344 435.558594 C 629.503906 438.867188 631.464844 441.988281 633.875 444.617188 C 635.089844 445.914062 636.386719 447.125 637.796875 448.105469 C 638.480469 448.65625 639.246094 449.054688 639.957031 449.503906 L 641.089844 450.101562 C 641.273438 450.214844 641.488281 450.28125 641.671875 450.367188 L 642.933594 450.882812 C 643.996094 451.230469 644.996094 451.578125 645.992188 451.960938 L 647.488281 452.511719 L 648.234375 452.792969 C 648.320312 453.007812 648.269531 453.308594 648.285156 453.574219 L 648.300781 460.039062 L 648.300781 466.6875 C 648.234375 475.363281 648.152344 484.152344 648.085938 492.996094 C 647.585938 528.363281 646.40625 564.726562 644.046875 600.273438 C 643.53125 609.164062 642.683594 617.992188 642.035156 626.75 C 641.121094 635.507812 640.492188 644.183594 639.34375 652.742188 C 637.515625 669.828125 634.625 686.644531 631.21875 702.433594 C 629.503906 710.195312 628.058594 717.609375 627.910156 724.652344 C 627.695312 731.667969 628.855469 738.316406 631.550781 743.964844 C 634.160156 749.582031 638.429688 753.988281 643.214844 755.980469 C 648.117188 758.007812 653.820312 758.058594 658.773438 756.582031 C 663.773438 755.167969 667.996094 752.257812 670.703125 748.769531 C 673.363281 745.34375 674.695312 741.023438 675.308594 736.503906 C 676.40625 727.296875 676.140625 718.539062 675.773438 711.65625 Z M 642.96875 383.238281 C 642.96875 383.257812 642.949219 383.324219 642.96875 383.238281 Z M 642.96875 383.257812 Z M 652.773438 291.632812 C 652.753906 291.632812 652.707031 291.667969 652.773438 291.632812 Z M 656.296875 288.808594 C 656.296875 288.839844 656.277344 288.875 656.277344 288.90625 L 656.277344 288.890625 Z M 658.523438 292.496094 C 658.574219 292.515625 658.574219 292.515625 658.539062 292.464844 C 658.539062 292.464844 658.523438 292.480469 658.523438 292.496094 Z M 722.257812 624.238281 C 720.945312 628.113281 719.714844 630.339844 716.90625 630.953125 C 715.378906 631.285156 710.757812 632.015625 706.46875 632.25 C 702.183594 632.515625 698.292969 632.351562 698.292969 632.351562 C 698.292969 632.351562 694.386719 632.265625 690.132812 631.734375 C 685.863281 631.253906 681.292969 630.238281 679.796875 629.808594 C 678.847656 629.539062 678.117188 629.074219 677.484375 628.445312 C 678.796875 646.859375 680.445312 660.984375 681.875 670.957031 C 683.46875 682.472656 684.28125 688.375 684.28125 688.375 C 684.28125 688.375 684.53125 690.402344 685.015625 694.222656 C 685.445312 698.0625 686.109375 703.714844 686.527344 711.042969 C 686.890625 718.4375 687.257812 727.214844 685.976562 738 C 685.597656 740.742188 684.996094 743.632812 683.96875 746.609375 C 682.953125 749.515625 681.324219 752.675781 679.246094 755.382812 C 674.976562 760.835938 668.808594 764.921875 661.78125 766.949219 C 654.800781 768.996094 646.691406 769.078125 639.027344 765.9375 C 631.234375 762.644531 625.300781 756.082031 621.792969 748.601562 C 618.21875 741.140625 616.839844 732.648438 617.089844 724.386719 C 617.289062 716.078125 618.917969 708 620.648438 700.125 C 623.988281 684.550781 626.78125 668.429688 628.589844 651.480469 C 629.722656 643.070312 630.335938 634.460938 631.25 625.800781 C 631.898438 617.125 632.730469 608.382812 633.226562 599.558594 C 635.570312 564.277344 636.75 528.046875 637.234375 492.84375 C 637.316406 484.054688 637.382812 475.3125 637.449219 466.652344 C 637.464844 464.558594 637.464844 462.449219 637.464844 460.355469 L 637.25 460.269531 C 636.949219 460.136719 636.636719 460.023438 636.367188 459.871094 L 634.65625 458.976562 C 633.558594 458.328125 632.445312 457.679688 631.449219 456.914062 C 629.390625 455.433594 627.542969 453.757812 625.898438 451.945312 C 619.265625 444.765625 615.644531 435.542969 614.25 426.800781 C 612.785156 417.992188 613.085938 409.53125 613.46875 401.589844 C 614.964844 374.613281 616.175781 352.476562 616.773438 341.425781 C 617.390625 331.304688 618.503906 323.910156 620.25 316.5625 C 620.214844 316.195312 620.179688 315.832031 620.164062 315.464844 L 620.046875 313.140625 L 620.015625 311.941406 L 620.066406 310.082031 C 620.199219 307.371094 620.398438 304.445312 620.695312 301.371094 C 620.996094 298.398438 621.296875 294.773438 622.210938 293.011719 C 623.089844 291.167969 624.003906 290.253906 624.867188 289.574219 C 625.5 288.972656 628.207031 287.777344 630.816406 288.292969 C 631.664062 288.425781 632.628906 288.757812 633.277344 289.089844 C 633.894531 289.421875 634.472656 289.789062 635.273438 290.503906 C 636.035156 291.351562 637.050781 292.398438 637.75 295.171875 C 638.445312 297.882812 639.128906 301.523438 639.511719 306.160156 C 639.957031 316.894531 640.523438 331.304688 641.15625 346.859375 C 641.40625 353.988281 641.769531 361.417969 642.234375 368.847656 C 642.453125 372.585938 642.652344 376.308594 642.851562 380 C 642.902344 381.046875 642.949219 382.09375 643 383.125 C 643.035156 383.023438 643.066406 382.890625 643.132812 382.675781 C 643.464844 381.363281 643.746094 380.066406 643.996094 378.820312 C 644.480469 376.308594 644.796875 373.949219 644.960938 371.773438 C 645.308594 367.433594 645.109375 364.042969 644.996094 361.269531 C 644.894531 358.609375 644.828125 357.148438 644.828125 357.148438 C 644.828125 357.148438 644.679688 352.195312 644.429688 344.101562 C 644.261719 335.992188 644.0625 324.738281 644.679688 311.941406 C 644.828125 308.75 645.0625 305.445312 645.441406 302.019531 C 645.824219 298.597656 646.273438 295.125 647.402344 291.234375 C 647.671875 290.269531 648.085938 289.191406 648.601562 288.078125 C 648.949219 287.445312 649.183594 286.929688 649.664062 286.230469 C 649.945312 285.867188 650.246094 285.5 650.546875 285.152344 L 651.011719 284.652344 C 651.226562 284.453125 651.527344 284.238281 651.792969 284.054688 C 652.339844 283.671875 652.921875 283.324219 653.519531 283.042969 C 654.269531 282.808594 655.097656 282.640625 655.914062 282.59375 C 656.410156 282.59375 656.527344 282.476562 657.308594 282.640625 C 657.972656 282.773438 658.671875 283.023438 659.304688 283.339844 C 659.601562 283.507812 659.902344 283.6875 660.167969 283.871094 C 660.382812 284.039062 660.46875 284.136719 660.617188 284.269531 C 660.882812 284.519531 661.132812 284.804688 661.382812 285.085938 C 661.597656 285.351562 661.878906 285.734375 661.996094 285.933594 L 662.296875 286.496094 C 662.496094 286.878906 662.695312 287.277344 662.84375 287.644531 L 663.425781 289.40625 C 664.472656 293.578125 664.707031 296.984375 665.003906 300.523438 C 665.902344 314.417969 665.601562 327.5 665.417969 338.46875 C 665.253906 344.816406 665.105469 349.96875 664.988281 354.023438 C 664.839844 357.976562 664.886719 360.769531 664.9375 362.765625 C 665.171875 370.691406 665.335938 376.90625 665.503906 383.023438 C 665.554688 384.253906 665.585938 385.46875 665.601562 386.695312 C 665.953125 387.761719 666.300781 388.824219 666.648438 389.90625 C 666.882812 390.601562 667.113281 391.367188 667.3125 391.882812 L 667.628906 392.679688 L 667.8125 392.828125 C 668.027344 392.980469 668.210938 392.996094 668.378906 392.914062 C 668.710938 392.761719 668.59375 392.347656 668.5625 392.398438 L 668.5625 392.378906 L 668.628906 391.980469 C 668.742188 391.398438 668.777344 390.886719 668.808594 390.105469 C 668.910156 388.175781 669.007812 385.949219 669.125 383.523438 C 669.574219 373.898438 670.105469 362.617188 670.65625 350.882812 C 671.003906 342.339844 671.386719 333.730469 671.734375 325.070312 L 672.285156 312.140625 L 672.398438 308.816406 L 672.515625 307.039062 C 672.597656 306.007812 672.699219 304.878906 672.882812 303.847656 C 673.230469 301.738281 673.761719 299.710938 674.542969 298.03125 C 675.390625 296.371094 676.371094 295.273438 677.652344 294.359375 C 680.246094 292.449219 684.148438 292.097656 687.140625 293.460938 C 688.652344 294.109375 689.882812 295.125 690.796875 296.269531 C 691.746094 297.367188 692.574219 299.246094 692.941406 301.457031 L 694.105469 306.675781 C 694.355469 307.753906 694.585938 308.816406 694.769531 309.898438 L 695.964844 316.363281 C 697.347656 324.988281 698.375 333.582031 698.90625 342.074219 C 701.050781 376.058594 696.515625 407.703125 690.464844 432.632812 C 689.21875 437.753906 688.003906 443.402344 685.363281 448.769531 C 684.066406 451.429688 682.453125 454.089844 680.246094 456.515625 C 679.128906 457.730469 677.835938 458.859375 676.371094 459.839844 C 675.625 460.269531 674.808594 460.851562 674.113281 461.101562 L 673.015625 461.585938 L 672.75 461.699219 C 672.78125 469.378906 672.816406 476.824219 672.867188 484.054688 C 673 502.96875 673.265625 520.667969 673.628906 537.101562 C 674.378906 569.960938 675.507812 597.796875 676.9375 620.21875 C 676.953125 620.53125 676.96875 620.816406 677.003906 621.132812 C 679.015625 619.652344 680.527344 618.9375 682.386719 619.351562 C 683.71875 619.652344 687.722656 620.53125 691.460938 620.980469 C 695.183594 621.480469 698.625 621.582031 698.625 621.582031 C 698.625 621.582031 702.050781 621.679688 705.804688 621.429688 C 709.5625 621.214844 713.617188 620.566406 714.960938 620.351562 C 717.457031 619.96875 719.199219 621.464844 722.257812 624.238281 Z M 777.851562 435.027344 C 779.414062 433.117188 780.210938 431.851562 780.210938 431.851562 C 780.210938 431.851562 783.71875 426.984375 786.410156 420.964844 C 789.234375 415.015625 790.964844 408.035156 791.363281 405.691406 C 792.144531 401.371094 790.566406 398.511719 787.355469 394.921875 C 783.699219 398.113281 781.625 399.859375 780.808594 403.515625 C 780.394531 405.492188 778.914062 411.425781 776.554688 416.480469 C 774.277344 421.597656 771.351562 425.734375 771.351562 425.734375 C 771.351562 425.734375 770.65625 426.800781 769.507812 428.195312 C 768.359375 429.59375 766.75 431.253906 764.953125 432.269531 C 763.242188 433.296875 761.148438 433.714844 759.652344 433.5625 C 758.074219 433.414062 757.257812 432.898438 756.828125 432.617188 C 756.011719 432.050781 755.179688 431.753906 753.96875 431.335938 C 752.789062 430.886719 751.160156 430.355469 749.582031 428.496094 C 745.839844 431.703125 745.625 437.484375 750.410156 441.257812 C 751.691406 442.304688 754.847656 444.101562 758.703125 444.367188 C 762.5625 444.730469 766.914062 443.71875 770.421875 441.625 C 773.894531 439.582031 776.304688 436.921875 777.851562 435.027344 Z M 751.941406 336.554688 C 751.941406 336.554688 753.335938 335.308594 755.730469 333.898438 C 758.074219 332.535156 761.5625 331.1875 765.351562 331.054688 C 769.125 330.855469 772.796875 331.9375 775.191406 333.714844 C 777.667969 335.527344 779.480469 338.050781 780.394531 339.28125 C 782.089844 341.640625 783.585938 343.269531 785.261719 344.800781 C 786.941406 346.34375 788.851562 347.773438 790.964844 350.167969 C 793.488281 344.265625 793.089844 338.832031 789.203125 333.082031 C 788.089844 331.554688 785.910156 328.179688 781.539062 324.9375 C 777.101562 321.597656 770.65625 319.871094 764.855469 320.234375 C 759.019531 320.453125 753.753906 322.527344 750.328125 324.558594 C 746.90625 326.585938 745.042969 328.28125 745.042969 328.28125 C 745.042969 328.28125 743.050781 329.824219 740.507812 332.632812 C 737.929688 335.441406 734.9375 339.5625 732.527344 344.132812 C 730.054688 348.671875 728.058594 353.707031 726.746094 358.09375 C 725.464844 362.464844 724.800781 366.171875 724.550781 368.035156 C 723.636719 374.863281 725.484375 379.085938 729.207031 384.222656 C 732.347656 378.667969 734.273438 375.546875 735.1875 369.679688 C 735.453125 368.101562 736.035156 364.941406 737.148438 361.1875 C 738.261719 357.445312 739.976562 353.140625 742.070312 349.269531 C 744.113281 345.363281 746.523438 342.039062 748.515625 339.878906 C 750.496094 337.6875 751.941406 336.554688 751.941406 336.554688 Z M 783.816406 721.578125 C 783.75 704.894531 781.109375 688.074219 778.75 671.238281 C 774.09375 637.566406 770.121094 604.726562 768.34375 574.3125 C 767.894531 566.71875 767.546875 559.273438 767.347656 552.027344 C 767.214844 548.40625 767.179688 544.832031 767.148438 541.308594 C 767.132812 539.546875 767.113281 537.800781 767.097656 536.054688 C 767.097656 534.710938 767.097656 533.378906 767.113281 532.035156 C 767.132812 529.574219 767.164062 527.265625 767.179688 525.152344 C 767.296875 520.949219 767.398438 517.558594 767.464844 515.296875 C 767.730469 509 768.277344 503.730469 769.109375 498.910156 L 769.109375 498.894531 C 769.09375 497.214844 769.242188 495.503906 769.359375 493.710938 C 769.539062 490.101562 770.339844 486.3125 771.269531 482.09375 C 772.28125 478.253906 774.226562 471.089844 777.519531 462.914062 C 777.902344 461.867188 778.316406 460.820312 778.765625 459.773438 L 779.429688 458.175781 C 780.011719 456.765625 780.609375 455.335938 781.191406 453.921875 L 783.152344 449.484375 C 788.386719 437.636719 793.988281 425.851562 798.441406 413.539062 C 802.878906 401.253906 805.804688 388.390625 806.734375 375.179688 C 807.648438 362.050781 806.652344 348.636719 802.648438 336.40625 C 800.601562 330.339844 798.058594 324.40625 794.402344 319.320312 C 793.621094 317.957031 792.59375 316.777344 791.613281 315.566406 C 790.597656 314.402344 789.75 313.074219 788.570312 312.058594 L 785.28125 308.785156 C 784.214844 307.820312 783.203125 307.054688 782.023438 306.359375 C 777.417969 303.53125 771.617188 302.417969 766.035156 302.886719 C 760.449219 303.300781 755.03125 305.394531 750.164062 308.46875 C 740.421875 314.652344 733.042969 324.40625 728.007812 334.363281 C 722.90625 344.417969 720.296875 355.136719 719.101562 365.339844 C 716.824219 385.933594 721.0625 404.128906 725.765625 417.925781 C 730.550781 431.785156 735.785156 441.558594 738.628906 446.925781 C 740.507812 450.316406 740.738281 450.730469 740.957031 451.113281 C 743.164062 455.019531 745.34375 458.660156 747.488281 462.082031 C 748.449219 463.59375 749.347656 465.042969 750.210938 466.386719 L 750.246094 466.421875 L 750.792969 466.871094 C 751.574219 467.433594 752.089844 468.183594 752.605469 468.863281 C 753.417969 470.125 753.953125 471.273438 754.316406 472.289062 C 755.082031 474.347656 755.53125 476.160156 755.878906 477.871094 C 756.59375 481.328125 756.976562 484.4375 757.277344 487.328125 C 758.390625 498.84375 758.371094 506.972656 758.472656 512.820312 C 758.523438 524.503906 758.390625 526.898438 758.390625 526.898438 C 758.390625 526.898438 758.324219 534.726562 757.707031 548.554688 C 757.09375 562.382812 755.878906 582.226562 753.519531 606.242188 C 751.109375 630.273438 747.785156 658.507812 741.820312 689.054688 C 738.910156 704.410156 733.824219 719.816406 736.320312 734.34375 C 737.566406 741.507812 740.722656 748.421875 745.890625 752.808594 C 750.859375 757.128906 758.140625 758.542969 765.070312 756.945312 C 771.933594 755.398438 778.25 750.929688 780.824219 744.796875 C 783.617188 738.480469 783.734375 729.871094 783.816406 721.578125 Z M 789.484375 669.726562 C 791.828125 686.445312 794.585938 703.730469 794.652344 721.546875 C 794.636719 726.015625 794.554688 730.386719 794.121094 734.976562 C 793.671875 739.5625 792.824219 744.429688 790.765625 749.152344 C 788.652344 754.003906 785.195312 758.175781 781.109375 761.234375 C 777.019531 764.308594 772.347656 766.402344 767.480469 767.5 C 762.609375 768.613281 757.492188 768.746094 752.523438 767.699219 C 747.570312 766.71875 742.699219 764.292969 738.84375 761.035156 C 731.148438 754.402344 727.226562 745.128906 725.648438 736.203125 C 724.070312 727.082031 724.984375 718.289062 726.378906 710.128906 C 727.84375 701.933594 729.769531 694.40625 731.199219 686.960938 C 737.066406 657.011719 740.390625 628.960938 742.785156 605.191406 C 745.125 581.378906 746.324219 561.734375 746.9375 548.070312 C 747.554688 534.410156 747.636719 526.714844 747.636719 526.714844 C 747.636719 526.714844 747.753906 524.324219 747.6875 512.90625 C 747.601562 507.222656 747.601562 499.195312 746.574219 488.425781 C 746.289062 485.765625 745.925781 482.921875 745.34375 480.097656 C 745.058594 478.6875 744.695312 477.273438 744.261719 476.144531 C 744.128906 475.792969 744.011719 475.511719 743.878906 475.296875 C 743.847656 475.3125 743.8125 475.34375 743.78125 475.363281 L 743.382812 475.628906 L 743.214844 475.378906 L 743.148438 475.296875 C 743.082031 475.195312 743.03125 475.097656 742.964844 474.996094 L 742.898438 474.898438 L 742.25 473.933594 C 740.988281 471.9375 739.675781 469.894531 738.347656 467.785156 C 736.136719 464.261719 733.859375 460.488281 731.566406 456.414062 C 731.347656 456.015625 731.101562 455.585938 729.15625 452.0625 C 726.179688 446.445312 720.679688 436.207031 715.542969 421.433594 C 713.035156 414.019531 710.609375 405.476562 709.144531 395.835938 C 707.632812 386.183594 707.167969 375.496094 708.347656 364.175781 C 709.660156 352.910156 712.550781 340.945312 718.335938 329.507812 C 724.101562 318.175781 732.28125 307.074219 744.394531 299.3125 C 750.394531 295.503906 757.523438 292.664062 765.171875 292.082031 C 772.699219 291.46875 780.710938 292.878906 787.65625 297.085938 C 789.367188 298.113281 791.0625 299.394531 792.507812 300.707031 L 796.429688 304.597656 C 797.8125 305.828125 798.859375 307.371094 800.054688 308.769531 C 801.21875 310.214844 802.429688 311.625 803.378906 313.222656 C 807.683594 319.273438 810.625 326.117188 812.96875 333.050781 C 817.519531 347.027344 818.535156 361.71875 817.554688 375.960938 C 816.558594 390.1875 813.367188 404.214844 808.648438 417.195312 C 803.960938 430.15625 798.210938 442.253906 793.074219 453.871094 C 791.8125 456.679688 790.449219 459.855469 789.449219 462.316406 L 788.804688 463.84375 C 788.371094 464.859375 787.972656 465.855469 787.605469 466.835938 C 784.464844 474.664062 782.6875 481.210938 781.707031 484.734375 C 780.824219 488.589844 779.828125 491.980469 779.230469 495.171875 C 778.863281 496.75 778.515625 498.261719 778.183594 499.726562 C 778.398438 504.480469 778.433594 509.582031 778.234375 515.664062 C 778.167969 517.875 778.101562 521.199219 778 525.335938 C 777.984375 527.398438 777.96875 529.65625 777.949219 532.085938 C 777.933594 533.398438 777.933594 534.710938 777.933594 536.039062 C 777.949219 537.734375 777.96875 539.464844 777.984375 541.191406 C 778.015625 544.648438 778.050781 548.15625 778.199219 551.726562 C 778.382812 558.859375 778.714844 566.171875 779.164062 573.667969 C 780.925781 603.613281 784.847656 636.222656 789.484375 669.726562 Z M 560.070312 486.746094 C 559.203125 486.730469 558.273438 486.664062 557.507812 486.5625 C 556.996094 486.480469 557.078125 486.53125 556.5625 486.398438 L 555.300781 486.015625 C 553.585938 485.464844 551.824219 484.636719 550.0625 483.589844 C 546.574219 481.511719 543 478.519531 539.859375 475.476562 C 536.660156 472.46875 533.910156 469.246094 531.5625 466.386719 C 524.132812 456.863281 520.570312 450.101562 518.675781 446.660156 C 514.882812 439.648438 511.980469 434.078125 508.996094 428.792969 C 506.050781 423.507812 503.015625 418.507812 499.75 412.191406 C 499.667969 419.320312 500.242188 425.371094 501.609375 431.585938 C 502.996094 437.785156 505.191406 444.167969 509.183594 451.761719 C 511.1875 455.46875 514.941406 462.699219 523.089844 473.152344 C 525.671875 476.308594 528.71875 479.898438 532.347656 483.304688 C 535.945312 486.746094 539.894531 490.136719 544.546875 492.929688 C 546.871094 494.292969 549.347656 495.472656 551.910156 496.300781 C 552.558594 496.519531 553.203125 496.71875 553.851562 496.867188 C 554.402344 497.035156 555.566406 497.25 556.113281 497.300781 C 557.476562 497.484375 558.65625 497.53125 559.820312 497.566406 C 562.144531 497.617188 564.308594 497.484375 566.382812 497.167969 C 566.917969 497.082031 567.429688 496.984375 567.929688 496.902344 C 568.527344 496.75 569.390625 496.484375 570.074219 496.300781 C 570.804688 496.136719 571.4375 495.753906 572.066406 495.488281 C 572.734375 495.222656 573.316406 494.921875 573.796875 494.523438 C 576.171875 492.828125 577.835938 490.320312 577.820312 487.628906 C 578.167969 484.984375 577.003906 482.507812 575.292969 480.496094 C 573.066406 478.269531 571.039062 476.242188 569.210938 474.398438 C 566.085938 471.457031 563.972656 468.765625 562.179688 466.835938 C 560.367188 464.910156 559.269531 463.414062 558.523438 462.480469 C 557.777344 461.535156 557.425781 461.101562 557.425781 461.101562 C 557.425781 461.101562 554.851562 458.0625 551.261719 452.777344 C 547.554688 447.558594 542.96875 440.011719 538.683594 431.371094 C 529.867188 414.136719 524.082031 391.949219 522.589844 378.585938 C 521.402344 369.480469 521.441406 365.058594 521.199219 362.347656 C 521.121094 358.359375 521 354.789062 520.832031 351.464844 C 520.804688 348.15625 520.609375 345.03125 520.390625 342.039062 C 520.242188 339.132812 520.117188 336.339844 520.449219 333.515625 C 520.808594 330.722656 521.566406 327.730469 524.089844 325.15625 C 520.628906 326.203125 517.914062 329.011719 516.167969 331.9375 C 514.375 334.910156 513.320312 338.070312 512.527344 341.242188 C 511.820312 344.382812 511.320312 347.574219 510.851562 351.097656 C 510.535156 354.621094 510.390625 358.425781 510.4375 362.699219 C 510.65625 365.574219 510.597656 370.308594 511.859375 380.015625 C 513.417969 394.242188 519.578125 417.84375 528.972656 436.15625 C 533.542969 445.347656 538.445312 453.375 542.402344 458.910156 C 546.226562 464.542969 548.984375 467.785156 548.984375 467.785156 C 548.984375 467.785156 549.347656 468.230469 550.148438 469.246094 C 550.945312 470.242188 552.125 471.855469 554.035156 473.917969 C 555.945312 475.976562 558.222656 478.835938 561.546875 482.011719 C 562.84375 483.289062 564.273438 484.71875 565.851562 486.28125 C 565.519531 486.347656 565.15625 486.414062 564.789062 486.480469 C 563.441406 486.679688 561.796875 486.78125 560.070312 486.746094 Z M 912.566406 327.367188 C 912.601562 327.464844 912.585938 327.382812 912.566406 327.367188 Z M 910.855469 321.382812 C 911.238281 322.746094 911.820312 324.738281 912.519531 327.199219 L 912.285156 324.957031 C 912.054688 322.3125 911.6875 319.671875 911.238281 317.027344 C 910.871094 314.386719 910.308594 311.757812 909.757812 309.152344 C 907.53125 298.746094 904.175781 288.941406 900.769531 281.0625 C 895.933594 269.828125 891.808594 263.429688 889.816406 260.039062 C 885.628906 253.308594 882.335938 248.058594 879.078125 242.804688 C 875.988281 237.570312 872.996094 232.585938 869.222656 226.519531 C 875.355469 230.074219 880.476562 233.433594 885.144531 237.738281 C 889.933594 241.957031 894.269531 247.125 898.941406 254.304688 C 901.117188 257.914062 905.539062 264.761719 910.738281 276.777344 C 914.394531 285.203125 917.984375 295.722656 920.363281 306.875 C 920.945312 309.664062 921.542969 312.472656 921.941406 315.316406 C 922.421875 318.160156 922.824219 321 923.054688 323.824219 L 923.289062 325.953125 C 923.320312 326.433594 923.585938 328.363281 923.503906 329.410156 C 923.421875 331.785156 923.335938 334.144531 923.238281 336.488281 L 923.121094 339.996094 C 923.054688 341.144531 923.105469 342.4375 922.773438 343.054688 C 922.242188 344.601562 921.558594 345.960938 920.761719 347.125 C 919.132812 349.402344 917.121094 351.046875 914.097656 351.597656 C 912.667969 351.863281 910.65625 351.511719 910.523438 351.445312 C 909.960938 351.347656 909.425781 351.230469 908.894531 351.132812 L 908.511719 351.03125 L 908.3125 351 C 908.246094 350.980469 908.199219 351.03125 908.113281 350.75 C 907.832031 349.902344 907.550781 349.085938 907.265625 348.273438 C 906.71875 346.644531 906.167969 345.066406 905.65625 343.554688 C 905.386719 342.753906 905.121094 342.089844 904.890625 341.257812 C 904.65625 340.363281 904.441406 339.480469 904.242188 338.617188 C 903.808594 336.886719 903.410156 335.242188 903.011719 333.664062 C 902.664062 332.234375 902.3125 330.871094 902 329.574219 C 901.796875 328.894531 901.597656 328.246094 901.433594 327.632812 C 901.085938 326.402344 900.785156 325.355469 900.535156 324.507812 C 900.003906 322.796875 899.703125 321.863281 899.703125 321.863281 C 899.703125 321.863281 898.375 317.378906 895.714844 310.363281 C 893.039062 303.351562 889.019531 293.8125 883.5 283.957031 C 878.066406 274.082031 871.152344 263.878906 863.773438 255.238281 C 856.476562 246.496094 848.714844 239.332031 842.683594 234.347656 C 835.570312 228.578125 831.878906 226.121094 829.636719 224.640625 C 816.257812 215.898438 808.929688 210.546875 797.011719 202.703125 C 811.15625 204.019531 821.195312 206.4375 835.585938 215.664062 C 838.011719 217.246094 841.96875 219.835938 849.582031 226.003906 C 856.027344 231.304688 864.289062 238.933594 872.066406 248.238281 C 879.925781 257.464844 887.222656 268.265625 892.957031 278.703125 C 898.789062 289.125 903.011719 299.179688 905.804688 306.542969 C 908.597656 313.921875 909.976562 318.625 909.976562 318.625 C 909.976562 318.625 910.292969 319.605469 910.855469 321.382812 Z M 473.132812 522.429688 C 473.085938 521.761719 473.007812 520.914062 472.625 519.652344 C 471.90625 517.160156 469.738281 513.601562 465.589844 512.308594 C 463.289062 511.59375 460.128906 511.773438 457.714844 513.089844 C 456.53125 513.703125 455.414062 514.535156 454.753906 515.25 C 454.046875 515.914062 453.589844 516.578125 453.28125 517.011719 C 451.578125 519.4375 452.183594 522.460938 454.226562 524.125 C 454.214844 524.738281 454.246094 525.503906 454.421875 526.398438 C 454.519531 527.066406 454.960938 528.394531 455.46875 529.242188 C 456.007812 530.171875 456.683594 530.972656 457.449219 531.667969 C 458.984375 533 460.921875 533.980469 463.316406 534.113281 C 465.632812 534.292969 468.179688 533.046875 469.347656 531.75 C 472.007812 529.492188 472.644531 526.980469 472.9375 525.652344 C 473.222656 524.105469 473.160156 523.410156 473.160156 523.410156 C 473.160156 523.410156 473.195312 523.058594 473.132812 522.429688 Z M 607.921875 647.457031 C 608.003906 647.390625 607.988281 647.40625 607.921875 647.457031 Z M 607.839844 647.507812 C 607.820312 647.507812 607.820312 647.523438 607.804688 647.523438 C 607.820312 647.523438 607.820312 647.507812 607.839844 647.507812 Z M 606.660156 647.722656 C 606.574219 647.605469 606.523438 647.507812 606.476562 647.421875 C 606.457031 647.789062 606.425781 648.136719 606.390625 648.453125 C 606.558594 648.335938 606.707031 648.238281 606.839844 648.15625 C 606.792969 648.003906 606.742188 647.871094 606.660156 647.722656 Z M 607.789062 647.539062 Z M 607.804688 647.523438 C 607.820312 647.523438 607.820312 647.507812 607.839844 647.507812 L 607.820312 647.523438 Z M 607.707031 647.605469 C 607.6875 647.605469 607.6875 647.605469 607.707031 647.605469 Z M 615.664062 644.015625 C 617.226562 647.191406 616.847656 650.929688 615.847656 653.457031 C 614.886719 656.066406 613.371094 658.144531 611.894531 659.539062 C 610.464844 660.902344 609.25 661.566406 609.25 661.566406 C 609.25 661.566406 608.96875 661.75 608.417969 662.03125 C 607.855469 662.316406 607.023438 662.714844 605.792969 663.027344 C 604.582031 663.328125 602.867188 663.527344 600.941406 663.027344 C 599.046875 662.546875 597.085938 661.316406 595.789062 659.523438 C 593.28125 655.867188 593.613281 652.144531 594.558594 649.367188 C 595.722656 646.308594 597.285156 645.046875 598 644.332031 C 599.445312 643.085938 600.808594 642.785156 602.238281 643.050781 C 602.386719 642.339844 602.6875 641.671875 603.136719 641.15625 C 604.449219 639.445312 606.523438 638.515625 609.101562 638.964844 C 609.78125 639.113281 610.863281 639.363281 612.160156 640.128906 C 612.808594 640.511719 613.503906 641.058594 614.152344 641.757812 C 614.46875 642.121094 614.816406 642.570312 615.066406 642.9375 C 615.265625 643.269531 615.484375 643.632812 615.664062 644.015625 Z M 841.058594 637.070312 C 841.058594 637.070312 841.042969 637.085938 841.058594 637.070312 Z M 841.640625 635.589844 C 841.808594 635.507812 840.527344 634.992188 840.160156 635.125 C 839.496094 635.226562 838.980469 633.0625 835.175781 631.867188 C 833.894531 628.179688 835.722656 624.753906 839.296875 624.390625 C 840.261719 624.273438 842.238281 624.207031 844.566406 624.988281 C 846.859375 625.703125 849.636719 627.546875 851.148438 630.386719 C 852.726562 633.28125 852.625 636.289062 852.226562 638.167969 C 851.8125 640.09375 851.199219 641.191406 851.199219 641.191406 C 851.199219 641.191406 850.816406 642.171875 849.601562 643.71875 C 848.503906 645.128906 845.828125 647.574219 841.824219 647.921875 C 839.546875 648.171875 836.257812 647.222656 834.179688 645.414062 C 832.152344 643.75 831.054688 641.707031 830.671875 640.675781 C 829.160156 637.136719 831.785156 633.464844 835.773438 633.613281 C 836.839844 635.207031 838.183594 635.890625 839.046875 636.089844 C 839.945312 636.320312 840.460938 636.238281 840.5625 636.4375 C 840.609375 636.539062 840.828125 636.851562 841.027344 637.019531 L 841.074219 637.054688 C 841.09375 637.035156 841.144531 637.003906 841.242188 636.886719 C 841.410156 636.6875 841.507812 636.503906 841.507812 636.503906 C 841.542969 636.605469 841.757812 635.441406 841.640625 635.589844 Z M 985.464844 495.65625 C 985.5 495.621094 985.5 495.636719 985.464844 495.65625 Z M 984.417969 497.597656 L 984.417969 497.699219 C 984.417969 497.699219 984.4375 497.648438 984.417969 497.597656 Z M 985.25 495.738281 Z M 992.976562 492.097656 C 993.359375 492.929688 993.609375 493.644531 993.777344 494.507812 C 994.109375 496.167969 994.007812 497.882812 993.660156 499.292969 C 992.945312 502.167969 991.566406 504.082031 990.535156 505.359375 C 989.472656 506.640625 988.671875 507.320312 988.671875 507.320312 C 988.671875 507.320312 988.375 507.585938 987.84375 508.050781 C 987.3125 508.402344 986.265625 509.632812 983.421875 510.164062 C 982.09375 510.394531 980.480469 510.214844 979.183594 509.664062 C 977.886719 509.117188 976.875 508.320312 976.09375 507.503906 C 974.546875 505.808594 973.683594 504.015625 973.265625 501.820312 C 972.585938 498.03125 973.847656 494.492188 974.496094 493.246094 C 975.496094 491.316406 977.171875 490.386719 979.152344 490.4375 C 979.183594 490.351562 979.199219 490.269531 979.234375 490.203125 C 980.214844 488.257812 982.09375 487.113281 984.320312 487.027344 C 985.5 487.078125 988.09375 486.929688 991.117188 489.539062 C 991.847656 490.21875 992.496094 491.085938 992.976562 492.097656 Z M 985.964844 282.808594 Z M 985.980469 282.824219 L 985.980469 282.808594 Z M 985.082031 282.359375 C 985.152344 282.574219 985.199219 282.777344 985.265625 282.957031 C 985.464844 282.957031 985.648438 282.925781 985.765625 282.875 C 985.882812 282.84375 985.914062 282.824219 985.949219 282.808594 C 985.949219 282.777344 985.914062 282.726562 985.882812 282.625 C 985.949219 282.59375 986.214844 282.410156 986.445312 282.195312 C 986.164062 282.144531 985.648438 282.160156 985.082031 282.359375 Z M 987.046875 281.046875 C 987.078125 280.898438 987.09375 280.832031 987.046875 281.046875 Z M 996.75 282.261719 C 996.832031 283.789062 996.566406 285.183594 996.203125 286.316406 C 995.835938 287.429688 995.320312 288.277344 994.9375 288.824219 C 994.574219 289.40625 994.308594 289.671875 994.308594 289.671875 C 994.308594 289.671875 993.890625 290.222656 993.011719 291.003906 C 992.097656 291.765625 990.667969 292.664062 989.054688 293.179688 C 985.796875 294.277344 981.496094 293.925781 978.152344 291.75 L 976.808594 290.867188 L 976.210938 289.523438 C 974.265625 285.152344 975.710938 281.5625 976.277344 280.332031 C 976.839844 279.117188 977.722656 278.273438 978.71875 277.757812 C 978.953125 276.957031 979.367188 276.195312 980 275.480469 C 980.828125 274.632812 982.640625 272.621094 986.511719 272.273438 C 990.617188 271.941406 994.226562 274.796875 995.585938 277.804688 C 996.335938 279.300781 996.667969 280.8125 996.75 282.261719 Z M 831.253906 113.574219 C 831.269531 113.59375 831.269531 113.605469 831.269531 113.617188 L 831.269531 113.59375 C 831.269531 113.585938 831.269531 113.578125 831.253906 113.574219 Z M 821.566406 118.222656 C 821.398438 117.617188 821.25 116.96875 821.183594 116.3125 C 821.117188 115.714844 821.082031 115.175781 821.082031 114.609375 C 821.097656 112.390625 821.746094 110.425781 822.128906 109.59375 C 822.746094 108.175781 823.957031 107.4375 825.488281 107.347656 C 825.984375 106.320312 826.867188 105.464844 828.078125 104.976562 C 828.792969 104.699219 830.738281 104.085938 832.914062 104.589844 C 835.078125 105.050781 837.386719 106.492188 838.714844 109.320312 C 839.363281 110.722656 839.761719 112.535156 839.53125 114.5 C 839.3125 116.476562 838.351562 118.492188 837.105469 119.839844 C 835.839844 121.195312 834.511719 121.871094 833.664062 122.222656 C 832.78125 122.636719 832.316406 122.640625 832.300781 122.679688 C 832.300781 122.679688 831.105469 123.117188 829.125 123.078125 C 828.179688 123.019531 827.015625 122.890625 825.902344 122.519531 C 824.773438 122.128906 823.707031 121.570312 822.3125 120.96875 C 822.113281 120.238281 821.847656 119.28125 821.566406 118.222656 Z M 610.03125 113.035156 C 609.601562 112.980469 608.769531 113.203125 608.152344 113.8125 C 608.402344 113.828125 608.621094 113.828125 608.769531 113.792969 C 609.367188 113.671875 609.25 113.675781 609.25 113.675781 L 609.25 113.671875 C 609.25 113.671875 609.21875 113.683594 609.25 113.632812 C 609.265625 113.617188 609.21875 113.597656 609.265625 113.613281 C 609.449219 113.632812 609.683594 113.652344 609.933594 113.640625 C 610.296875 113.632812 610.664062 113.519531 610.878906 113.429688 C 610.796875 113.363281 610.695312 113.292969 610.613281 113.242188 C 610.332031 113.09375 610.132812 113.039062 610.03125 113.035156 Z M 611.027344 113.371094 C 611.046875 113.363281 611.046875 113.363281 611.046875 113.359375 C 611.046875 113.363281 611.027344 113.363281 611.027344 113.371094 Z M 604.761719 110.742188 C 604.714844 110.488281 604.695312 110.230469 604.714844 109.976562 C 604.746094 108.0625 605.8125 106.367188 607.671875 105.464844 C 608.6875 105.054688 610.863281 103.964844 614.402344 105.074219 C 615.285156 105.394531 616.132812 105.882812 616.929688 106.542969 C 617.578125 107.128906 618.125 107.75 618.609375 108.496094 C 619.570312 109.964844 620.003906 111.644531 620.070312 113.113281 C 620.1875 116.085938 619.140625 118.417969 617.960938 120.03125 C 616.8125 121.621094 615.714844 122.304688 615.714844 122.304688 C 615.714844 122.304688 615.167969 122.746094 614.171875 123.273438 C 613.222656 123.773438 611.859375 124.273438 610.347656 124.492188 C 607.289062 124.988281 604.082031 124.265625 601.871094 123.335938 L 599.195312 122.214844 L 598.648438 119.527344 C 598 116.351562 598.746094 114.339844 599.0625 113.429688 C 600.011719 110.957031 602.355469 110.023438 604.761719 110.742188 Z M 456.472656 286.625 L 456.472656 286.644531 C 456.480469 286.625 456.492188 286.625 456.511719 286.625 C 456.492188 286.59375 456.46875 286.558594 456.449219 286.542969 C 456.453125 286.578125 456.460938 286.59375 456.472656 286.625 Z M 456.433594 286.660156 C 456.429688 286.675781 456.441406 286.660156 456.46875 286.644531 C 456.460938 286.644531 456.453125 286.625 456.453125 286.625 C 456.441406 286.644531 456.433594 286.660156 456.433594 286.660156 Z M 446.164062 290 C 445.378906 287.589844 445.523438 285.597656 445.664062 284.613281 C 446.027344 281.773438 448.351562 280.09375 451.039062 280.246094 C 451.054688 280.195312 451.066406 280.144531 451.085938 280.09375 C 451.683594 278.382812 453.164062 277.136719 455.125 276.753906 C 456.1875 276.539062 458.296875 276.289062 460.875 277.136719 C 462.148438 277.550781 463.589844 278.28125 464.875 279.5625 C 466.160156 280.757812 467.1875 282.621094 467.503906 284.347656 C 468.316406 287.988281 466.769531 291.097656 465.589844 292.675781 C 464.335938 294.320312 463.265625 295.035156 463.265625 295.035156 C 463.265625 295.035156 463.003906 295.21875 462.550781 295.550781 C 462.078125 295.851562 461.367188 296.332031 460.296875 296.746094 C 458.253906 297.613281 455.039062 298.027344 452.125 296.714844 C 449.195312 295.5 446.964844 292.660156 446.164062 290 Z M 534.363281 606.667969 C 533.988281 605.820312 533.550781 605.15625 533.117188 604.691406 C 532.742188 604.273438 532.347656 604.007812 532.054688 603.824219 C 530.957031 603.195312 530.066406 602.496094 529.003906 601.699219 C 528.332031 601.234375 527.523438 600.601562 526.351562 600.320312 C 526.09375 600.632812 525.855469 600.917969 525.625 601.199219 C 524.644531 602.445312 523.800781 603.410156 522.59375 604.472656 C 521.992188 605.070312 520.621094 606.386719 520.03125 608.246094 C 519.347656 610.074219 519.503906 612.019531 520.742188 613.847656 C 521.9375 615.691406 524.128906 616.972656 525.703125 617.453125 C 527.316406 617.953125 528.292969 617.835938 528.292969 617.835938 C 528.292969 617.835938 532.378906 618.035156 534.242188 613.347656 C 535.136719 611.121094 535.058594 608.394531 534.363281 606.667969 Z M 540.945312 597.226562 C 542.257812 598.574219 543.519531 600.433594 544.433594 602.644531 C 546.214844 607.082031 546.214844 612.617188 544.320312 617.355469 C 542.472656 622.140625 538.378906 625.996094 534.65625 627.34375 C 532.851562 628.105469 531.261719 628.371094 530.191406 628.488281 C 529.105469 628.621094 528.507812 628.589844 528.507812 628.589844 C 528.507812 628.589844 527.90625 628.589844 526.839844 628.570312 C 525.789062 628.472656 524.28125 628.289062 522.554688 627.773438 C 519.148438 626.726562 514.757812 624.351562 511.765625 619.914062 C 510.273438 617.734375 509.203125 615.042969 508.882812 612.285156 C 508.546875 609.507812 509.019531 606.832031 509.800781 604.625 C 511.371094 600.152344 514.167969 597.578125 515.503906 596.378906 C 519.316406 593.222656 523.554688 592.875 526.9375 594.570312 C 527.359375 594.269531 527.808594 594.019531 528.277344 593.820312 C 530.898438 592.691406 534.066406 592.691406 537.371094 594.453125 C 538.242188 594.949219 539.597656 595.796875 540.945312 597.226562 Z M 905.59375 159.636719 C 905.375 159.578125 905.128906 159.511719 904.878906 159.457031 C 904.960938 160.253906 904.996094 161 904.878906 161.851562 C 904.8125 162.53125 904.796875 164.078125 905.425781 165.410156 C 906.175781 167.011719 907.804688 168.738281 909.996094 169.945312 C 912.089844 171.148438 914.917969 171.84375 916.328125 171.964844 C 916.59375 172 916.925781 171.992188 917.027344 171.992188 C 917.011719 171.726562 916.992188 170.980469 916.925781 170.464844 C 916.8125 169.304688 916.5625 168.0625 916.164062 166.890625 C 915.382812 164.511719 913.96875 162.570312 912.523438 161.585938 C 911.277344 160.664062 909.863281 160.460938 909.167969 160.402344 C 907.886719 160.304688 906.90625 160.046875 905.59375 159.636719 Z M 895.636719 170.0625 C 893.710938 165.894531 893.976562 162.273438 894.191406 160.566406 C 894.875 155.535156 898.496094 152.4375 902.433594 152.269531 C 904.164062 150.601562 906.65625 149.535156 909.746094 149.652344 C 911.441406 149.71875 915.183594 150.132812 918.855469 152.78125 C 922.378906 155.222656 925.136719 159.382812 926.433594 163.441406 C 927.132812 165.480469 927.496094 167.507812 927.679688 169.382812 C 927.78125 170.382812 927.828125 171.089844 927.828125 172.21875 C 927.828125 173.601562 927.648438 174.894531 927.296875 175.996094 C 926.582031 178.242188 925.203125 179.683594 924.171875 180.488281 C 923.125 181.296875 922.410156 181.585938 922.410156 181.585938 C 922.410156 181.585938 921.746094 181.957031 920.449219 182.320312 C 919.785156 182.496094 919.003906 182.65625 918.007812 182.734375 C 917.058594 182.808594 916.394531 182.792969 915.5 182.730469 C 913.71875 182.585938 912.191406 182.25 910.363281 181.734375 C 908.550781 181.210938 906.640625 180.464844 904.761719 179.429688 C 901.007812 177.425781 897.417969 173.9375 895.636719 170.0625 Z M 931.335938 575.394531 C 932.25 572.605469 933.378906 570.460938 933.960938 569.398438 C 936.222656 565.542969 936.273438 562.582031 937.253906 557.097656 C 931.71875 557.398438 927.746094 558.960938 924.621094 564.046875 C 923.808594 565.425781 922.261719 568.300781 921.03125 572.074219 C 920.417969 574 919.917969 575.945312 919.519531 578.386719 C 919.4375 579.050781 919.371094 579.734375 919.371094 580.566406 C 919.371094 581.527344 919.46875 582.527344 919.703125 583.472656 C 920.167969 585.382812 921.199219 587.128906 922.644531 588.425781 C 923.359375 589.074219 924.191406 589.640625 925.003906 590.070312 C 925.667969 590.4375 926.269531 590.703125 926.800781 590.917969 C 927.894531 591.367188 928.960938 591.75 930.007812 592.03125 C 932.101562 592.613281 934.09375 592.914062 935.808594 593.011719 C 939.230469 593.210938 941.492188 592.730469 941.492188 592.730469 C 941.492188 592.730469 942.039062 592.648438 943.035156 592.429688 C 944.015625 592.214844 945.445312 591.832031 947.109375 591.117188 C 950.414062 589.804688 954.871094 586.449219 957.195312 581.726562 C 959.621094 577.125 960.269531 571.027344 958.226562 566.207031 C 957.28125 563.796875 955.683594 561.75 954.253906 560.472656 C 952.777344 559.160156 951.445312 558.378906 950.53125 557.929688 C 947.160156 556.25 943.933594 556.382812 941.359375 557.464844 C 938.78125 558.578125 936.789062 560.921875 936.324219 563.679688 C 939.148438 563.546875 940.777344 564.59375 942.023438 565.339844 C 943.300781 566.1875 944.316406 566.804688 945.613281 567.503906 C 946.3125 567.882812 947.605469 568.75 948.15625 570.226562 C 948.886719 571.804688 948.753906 574.480469 947.558594 576.777344 C 946.359375 579.085938 944.550781 580.464844 942.804688 581.214844 C 941.109375 581.960938 939.796875 582.09375 939.796875 582.09375 C 939.796875 582.09375 938.53125 582.359375 936.472656 582.242188 C 935.441406 582.160156 934.226562 581.996094 932.933594 581.613281 C 932.285156 581.445312 931.636719 581.195312 930.988281 580.929688 C 930.65625 580.796875 930.40625 580.679688 930.207031 580.582031 C 930.207031 580.433594 930.238281 580.148438 930.273438 579.851562 C 930.503906 578.472656 930.90625 576.757812 931.335938 575.394531 Z M 501.222656 193.449219 C 501.257812 193.949219 501.335938 194.277344 501.386719 194.433594 C 501.402344 194.480469 501.414062 194.511719 501.414062 194.527344 C 501.464844 194.542969 501.710938 194.617188 502.023438 194.609375 C 502.664062 194.628906 503.484375 194.46875 504.109375 194.277344 C 504.75 194.082031 505.191406 193.871094 505.527344 193.71875 C 505.894531 193.539062 506.082031 193.449219 506.082031 193.449219 C 506.082031 193.449219 507.203125 192.910156 508.625 191.8125 C 510.046875 190.726562 511.625 189.011719 512.222656 187.148438 C 512.828125 185.585938 512.429688 183.289062 511.683594 182.300781 C 511.332031 181.789062 510.988281 181.496094 510.691406 181.339844 C 510.578125 181.253906 510.347656 181.238281 510.191406 181.191406 C 509.554688 181.09375 508.695312 180.847656 507.527344 180.566406 C 506.898438 180.464844 506.054688 180.308594 505.09375 180.496094 C 504.703125 181.808594 504.347656 182.773438 503.542969 184.113281 C 503.035156 184.929688 501.917969 187.070312 501.484375 189.695312 C 501.265625 190.9375 501.152344 192.394531 501.222656 193.449219 Z M 501.414062 194.527344 Z M 491.101562 197.855469 C 490.6875 196.609375 490.492188 195.367188 490.410156 194.226562 C 490.261719 191.988281 490.441406 189.882812 490.8125 187.753906 C 491.511719 183.566406 493.375 179.917969 494.472656 178.308594 C 496.574219 174.976562 500.035156 173.347656 503.289062 173.621094 C 504.90625 171.691406 507.457031 170.257812 511.066406 170.460938 C 512.132812 170.5625 513.808594 170.757812 515.753906 171.777344 C 517.511719 172.679688 519.335938 174.246094 520.679688 176.25 C 523.386719 180.28125 524.160156 185.742188 522.472656 190.683594 C 520.835938 195.394531 517.585938 198.542969 515.214844 200.359375 C 512.785156 202.199219 511.066406 202.988281 511.066406 202.988281 C 511.066406 202.988281 510.78125 203.132812 510.210938 203.417969 C 509.605469 203.710938 508.632812 204.164062 507.296875 204.582031 C 505.9375 204.984375 504.21875 205.429688 501.789062 205.410156 C 500.574219 205.386719 499.171875 205.230469 497.542969 204.628906 C 495.886719 203.996094 494.234375 202.90625 492.96875 201.324219 C 492.234375 200.414062 491.488281 199.070312 491.101562 197.855469 Z M 709.699219 667.457031 C 708.867188 665.5625 707.554688 664.214844 706.855469 663.683594 C 705.609375 662.605469 704.730469 661.65625 703.734375 660.425781 C 702.886719 659.414062 701.90625 658.148438 700.242188 656.96875 C 700.410156 657.203125 700.589844 657.453125 700.722656 657.734375 C 698.132812 658.632812 697.417969 660.375 696.734375 661.558594 C 696.085938 662.851562 695.605469 663.785156 694.839844 664.914062 C 694.476562 665.527344 693.644531 666.875 693.546875 669.035156 C 693.328125 671.128906 694.058594 673.855469 695.40625 675.683594 C 696.753906 677.527344 698.480469 678.324219 699.960938 678.523438 C 701.457031 678.742188 702.550781 678.476562 702.550781 678.476562 C 702.550781 678.476562 703.617188 678.324219 705.195312 677.59375 C 706.742188 676.878906 708.734375 675.316406 709.648438 673.375 C 710.628906 671.460938 710.53125 669.351562 709.699219 667.457031 Z M 719.652344 663.136719 C 720.535156 665.214844 721.183594 667.707031 721.214844 670.382812 C 721.234375 673.074219 720.519531 675.832031 719.355469 678.175781 C 716.976562 682.960938 712.988281 685.855469 709.867188 687.316406 C 706.707031 688.796875 704.398438 689.09375 704.398438 689.09375 C 704.398438 689.09375 703.832031 689.160156 702.800781 689.3125 C 701.789062 689.394531 700.292969 689.460938 698.429688 689.210938 C 694.773438 688.847656 689.640625 686.335938 686.664062 682.097656 C 683.625 677.925781 682.359375 672.726562 682.726562 668.304688 C 682.941406 663.832031 684.902344 660.292969 686.015625 658.730469 C 688.160156 655.804688 691.003906 654.425781 693.710938 654.261719 C 695.707031 654.109375 697.882812 654.757812 699.410156 656.089844 C 703 652.234375 708.636719 651.402344 713.722656 655.375 C 715.117188 656.472656 717.808594 658.980469 719.652344 663.136719 Z M 1011.558594 389.082031 C 1010.046875 388.847656 1008.832031 388.5 1007.335938 388.050781 C 1007.304688 388.035156 1007.253906 388.015625 1007.222656 388 C 1006.574219 389.03125 1005.941406 389.910156 1005.109375 390.890625 C 1004.578125 391.523438 1003.515625 392.96875 1003.25 394.730469 C 1002.964844 396.425781 1003.515625 398.371094 1005.175781 400.066406 C 1006.773438 401.726562 1009.050781 402.527344 1010.460938 402.59375 C 1011.90625 402.675781 1012.65625 402.292969 1012.671875 402.34375 C 1012.65625 402.292969 1013.453125 402.144531 1014.550781 401.195312 C 1015.613281 400.28125 1016.925781 398.269531 1017.160156 395.976562 C 1017.410156 393.667969 1016.628906 391.824219 1015.382812 390.757812 C 1014.101562 389.628906 1012.355469 389.195312 1011.558594 389.082031 Z M 997.464844 407.675781 C 995.621094 405.832031 994.089844 403.488281 993.210938 400.878906 C 992.296875 398.269531 992.148438 395.445312 992.53125 393.035156 C 993.359375 388.183594 995.820312 385.140625 997.035156 383.777344 C 999.625 380.988281 1002.667969 379.824219 1005.542969 379.988281 C 1007.503906 378.710938 1010.0625 378.078125 1013.054688 378.410156 C 1014.882812 378.675781 1018.773438 379.375 1022.542969 382.617188 C 1024.40625 384.242188 1026.101562 386.570312 1027.015625 389.195312 C 1027.980469 391.804688 1028.226562 394.613281 1027.914062 397.207031 C 1027.347656 402.425781 1024.570312 406.796875 1021.679688 409.304688 C 1020.21875 410.570312 1018.804688 411.382812 1017.773438 411.847656 C 1016.726562 412.296875 1016.128906 412.53125 1016.128906 412.53125 C 1016.128906 412.53125 1015.515625 412.695312 1014.417969 413.011719 C 1013.320312 413.246094 1011.707031 413.476562 1009.796875 413.363281 C 1005.976562 413.160156 1001.121094 411.398438 997.464844 407.675781 Z M 425.523438 402.410156 C 425.25 406.496094 425.023438 409.140625 423.925781 412.046875 C 423.59375 413.046875 423.042969 414.773438 423.328125 416.902344 C 423.574219 419.09375 424.757812 421.039062 426.183594 421.65625 C 427.636719 422.4375 430.015625 422.167969 431.421875 421.488281 C 432.144531 421.171875 432.652344 420.789062 432.988281 420.539062 C 433.304688 420.273438 433.5 420.09375 433.5 420.09375 C 433.5 420.09375 434.3125 419.410156 435.160156 417.847656 C 436.019531 416.304688 436.777344 413.660156 436.683594 410.800781 C 436.640625 408.011719 435.582031 405.167969 434.355469 403.789062 C 433.761719 403.074219 433.175781 402.707031 432.667969 402.441406 C 432.28125 402.277344 432.125 402.257812 431.84375 402.226562 C 430.761719 402.109375 429.871094 402.027344 428.617188 401.910156 C 427.792969 401.878906 426.675781 401.8125 425.523438 402.410156 Z M 418.730469 402.242188 C 419.835938 401.578125 421.042969 401.113281 422.347656 400.746094 C 422.164062 399.070312 422.582031 397.257812 423.535156 395.859375 C 425.144531 393.367188 428.003906 391.457031 432.25 391.457031 C 433.351562 391.472656 435.292969 391.738281 437.238281 392.652344 C 439.0625 393.484375 441.0625 394.898438 442.628906 396.773438 C 445.839844 400.5625 447.394531 405.667969 447.511719 410.484375 C 447.667969 415.257812 446.40625 419.84375 444.648438 422.984375 C 443.796875 424.5625 442.867188 425.777344 442.171875 426.574219 C 441.484375 427.371094 441.03125 427.785156 441.03125 427.785156 C 441.03125 427.785156 440.621094 428.203125 439.753906 428.933594 C 438.882812 429.617188 437.582031 430.546875 435.855469 431.328125 C 432.488281 432.855469 427.007812 434.019531 421.464844 431.410156 C 418.730469 430.128906 416.453125 427.902344 415.023438 425.492188 C 413.570312 423.082031 412.855469 420.558594 412.570312 418.265625 C 411.972656 413.628906 413.21875 409.886719 413.824219 408.324219 C 415.011719 405.285156 416.769531 403.457031 418.730469 402.242188 Z M 716.070312 75.804688 C 716.003906 76.140625 715.953125 76.464844 715.90625 76.761719 C 715.722656 78.066406 715.523438 78.976562 715.023438 79.964844 C 714.742188 80.472656 714.277344 81.640625 714.257812 82.878906 C 714.242188 84.125 714.691406 85.179688 715.855469 86.195312 C 716.984375 87.175781 718.597656 87.683594 719.59375 87.671875 C 720.609375 87.683594 721.105469 87.480469 721.105469 87.480469 C 721.105469 87.480469 721.671875 87.363281 722.238281 86.851562 C 722.820312 86.390625 723.617188 85.191406 723.816406 83.625 C 724.03125 82.046875 723.484375 80.625 722.867188 80.054688 C 722.1875 79.269531 720.992188 78.757812 720.34375 78.542969 C 718.878906 78.0625 717.582031 77.179688 716.070312 75.804688 Z M 704.753906 89.132812 C 703.773438 87.019531 703.390625 84.789062 703.421875 82.828125 C 703.472656 78.867188 704.851562 76.039062 705.617188 74.746094 C 707.8125 71.042969 711.285156 69.757812 714.625 70.539062 C 717.066406 68.351562 719.542969 67.21875 723.601562 68.28125 C 724.929688 68.707031 727.9375 69.636719 730.8125 72.660156 C 733.835938 75.796875 735.167969 80.742188 734.570312 84.945312 C 734.070312 89.207031 731.761719 93.03125 729.152344 95.128906 C 727.886719 96.207031 726.640625 96.835938 725.777344 97.21875 C 724.914062 97.597656 724.414062 97.730469 724.414062 97.730469 C 724.414062 97.730469 722.386719 98.53125 719.261719 98.460938 C 716.171875 98.414062 712.164062 97.265625 708.839844 94.453125 C 707.179688 93.066406 705.71875 91.226562 704.753906 89.132812 Z M 548.796875 571.363281 L 550.742188 573.15625 C 559 580.71875 566.394531 586.203125 570.101562 588.914062 C 583.960938 598.683594 593.46875 601.910156 607.363281 604.902344 C 596.476562 595.710938 589.546875 589.628906 576.433594 580.203125 C 572.925781 577.59375 565.914062 572.359375 558.054688 565.128906 L 556.191406 563.433594 L 553.5 560.875 C 551.703125 559.164062 549.960938 557.386719 548.199219 555.609375 C 544.691406 552.035156 541.382812 548.179688 537.976562 544.339844 C 534.574219 540.5 531.464844 536.378906 528.179688 532.324219 C 525.171875 528.070312 521.859375 523.964844 519.03125 519.492188 C 517.574219 517.28125 516.109375 515.074219 514.636719 512.84375 C 513.265625 510.570312 511.890625 508.273438 510.507812 505.980469 C 507.65625 501.429688 505.269531 496.574219 502.664062 491.820312 C 497.859375 482.097656 493.246094 472.128906 489.621094 461.707031 C 481.957031 441 477.289062 418.914062 475.371094 396.625 C 473.8125 374.320312 475.074219 351.769531 479.949219 330.132812 C 489.167969 286.65625 510.53125 247.347656 536.222656 216.585938 C 561.925781 185.605469 592.238281 163.304688 620.027344 149.132812 C 647.898438 134.796875 673.210938 128.617188 690.792969 125.957031 C 693.003906 125.613281 695.082031 125.292969 697.042969 124.988281 C 699.019531 124.792969 700.863281 124.609375 702.59375 124.441406 C 706.03125 124.152344 708.941406 123.742188 711.300781 123.691406 C 716.039062 123.507812 718.5625 123.417969 718.5625 123.417969 C 718.5625 123.417969 719.179688 123.390625 720.410156 123.347656 C 721.621094 123.261719 723.433594 123.261719 725.808594 123.332031 C 730.546875 123.441406 737.542969 123.40625 746.417969 124.378906 C 750.871094 124.859375 755.792969 125.398438 761.109375 126.414062 C 766.460938 127.371094 772.246094 128.34375 778.34375 129.914062 C 790.574219 132.777344 804.269531 136.925781 818.578125 143.191406 C 847.183594 155.488281 878.777344 176.105469 904.820312 206.726562 C 931.160156 236.929688 951.519531 276.714844 961.359375 320.09375 C 966.210938 341.765625 968.636719 364.285156 968.171875 386.738281 C 968.023438 397.972656 967.023438 409.15625 965.5625 420.242188 C 964.730469 425.742188 963.550781 431.128906 962.570312 436.5625 C 961.308594 441.929688 959.679688 447.199219 958.265625 452.484375 C 951.667969 473.441406 941.730469 492.984375 929.832031 510.4375 C 917.929688 527.886719 904.070312 543.277344 889.460938 556.4375 C 887.632812 558.082031 885.824219 559.730469 884.011719 561.359375 C 882.183594 562.953125 880.238281 564.398438 878.375 565.910156 C 874.554688 568.835938 871.015625 572.027344 867.09375 574.585938 C 863.238281 577.246094 859.429688 579.886719 855.691406 582.464844 C 852.25 584.542969 848.878906 586.601562 845.535156 588.613281 C 843.476562 589.859375 841.597656 591.074219 839.753906 591.972656 C 836.128906 593.867188 833.222656 595.394531 831.277344 596.410156 C 829.480469 597.371094 827.804688 598.285156 826.191406 599.152344 C 824.546875 599.949219 822.984375 600.730469 821.503906 601.527344 C 818.53125 603.089844 815.835938 604.667969 813.226562 606.296875 C 807.976562 609.40625 802.992188 612.445312 797.042969 616.484375 C 804.054688 615.71875 810.105469 615.105469 816.21875 613.609375 C 819.246094 612.777344 822.320312 611.796875 825.609375 610.617188 C 827.273438 610.019531 828.949219 609.371094 830.730469 608.65625 C 832.492188 607.910156 834.234375 606.976562 836.128906 606.03125 C 838.15625 604.984375 841.214844 603.386719 844.988281 601.445312 C 846.898438 600.511719 848.878906 599.265625 851.003906 597.96875 C 854.476562 595.875 858 593.734375 861.589844 591.570312 C 865.480469 588.878906 869.433594 586.136719 873.441406 583.363281 C 877.527344 580.703125 881.21875 577.394531 885.191406 574.355469 C 887.117188 572.777344 889.144531 571.261719 891.058594 569.617188 C 892.933594 567.921875 894.828125 566.210938 896.726562 564.5 C 911.929688 550.789062 926.375 534.785156 938.804688 516.535156 C 951.238281 498.304688 961.65625 477.828125 968.621094 455.757812 C 970.117188 450.171875 971.828125 444.621094 973.15625 438.957031 C 974.203125 433.238281 975.433594 427.488281 976.300781 421.738281 C 977.828125 410.238281 978.859375 398.601562 979.023438 386.9375 C 979.488281 363.621094 976.980469 340.21875 971.929688 317.683594 C 961.707031 272.609375 940.515625 231.210938 913.011719 199.671875 C 885.824219 167.710938 852.75 146.113281 822.851562 133.277344 C 807.894531 126.742188 793.601562 122.402344 780.835938 119.425781 C 774.472656 117.789062 768.4375 116.773438 762.886719 115.78125 C 757.335938 114.722656 752.152344 114.152344 747.515625 113.652344 C 738.191406 112.640625 730.863281 112.671875 725.894531 112.5625 C 723.398438 112.484375 721.488281 112.492188 720.210938 112.574219 C 718.929688 112.621094 718.265625 112.648438 718.265625 112.648438 C 718.265625 112.648438 715.640625 112.75 710.652344 112.9375 C 708.160156 112.996094 705.117188 113.417969 701.511719 113.726562 C 699.699219 113.90625 697.757812 114.09375 695.695312 114.300781 C 693.632812 114.613281 691.457031 114.953125 689.148438 115.300781 C 670.683594 118.09375 644.191406 124.578125 615.125 139.515625 C 586.125 154.300781 554.613281 177.488281 527.910156 209.65625 C 501.234375 241.597656 479.015625 282.398438 469.355469 327.835938 C 464.265625 350.457031 462.921875 374.15625 464.554688 397.472656 C 466.550781 420.789062 471.445312 443.824219 479.417969 465.398438 C 483.207031 476.265625 488 486.652344 493.003906 496.757812 C 495.710938 501.710938 498.203125 506.761719 501.164062 511.5 C 502.601562 513.875 504.035156 516.269531 505.460938 518.644531 C 506.996094 520.957031 508.519531 523.265625 510.039062 525.558594 C 512.988281 530.214844 516.421875 534.484375 519.558594 538.90625 C 522.972656 543.125 526.21875 547.429688 529.753906 551.417969 C 533.285156 555.40625 536.742188 559.414062 540.417969 563.167969 C 542.265625 565.015625 544.074219 566.890625 545.988281 568.6875 Z M 1066.609375 393.117188 C 1066.558594 401.3125 1065.878906 409.472656 1064.996094 417.617188 C 1064.546875 421.6875 1064.015625 425.742188 1063.402344 429.78125 C 1062.6875 433.820312 1061.824219 437.808594 1061.042969 441.8125 C 1059.429688 449.808594 1058.066406 457.867188 1055.507812 465.628906 L 1052.117188 477.347656 C 1051.503906 479.273438 1051.070312 481.269531 1050.320312 483.164062 L 1048.144531 488.847656 L 1043.789062 500.183594 L 1041.613281 505.832031 L 1038.988281 511.285156 C 1025.675781 540.632812 1007.792969 567.308594 987.25 590.308594 C 966.625 613.277344 943.375 632.523438 919.542969 648.3125 C 916.570312 650.289062 913.644531 652.332031 910.667969 654.226562 C 907.609375 656.007812 904.570312 657.785156 901.542969 659.546875 C 895.496094 663.003906 889.644531 666.691406 883.460938 669.566406 C 877.363281 672.558594 871.414062 675.683594 865.414062 678.441406 C 860.0625 680.703125 854.8125 682.929688 849.625 685.125 C 847.332031 686.070312 845.222656 687.019531 843.242188 687.78125 C 839.253906 689.179688 836.046875 690.308594 833.902344 691.054688 C 818.148438 696.855469 808.242188 697.1875 794.132812 697.769531 C 806.53125 690.523438 814.972656 686.71875 830.261719 680.917969 C 832.339844 680.1875 835.464844 679.074219 839.335938 677.695312 C 841.265625 676.945312 843.328125 676.015625 845.554688 675.085938 C 850.589844 672.957031 855.726562 670.78125 860.925781 668.585938 C 866.761719 665.894531 872.542969 662.835938 878.492188 659.929688 C 884.492188 657.152344 890.175781 653.5625 896.058594 650.1875 C 899 648.476562 901.960938 646.765625 904.933594 645.035156 C 907.828125 643.191406 910.652344 641.199219 913.542969 639.269531 C 936.695312 623.945312 959.214844 605.285156 979.175781 583.078125 C 999.035156 560.808594 1016.285156 535.082031 1029.132812 506.78125 L 1031.660156 501.527344 L 1033.753906 496.078125 L 1037.957031 485.140625 L 1040.050781 479.65625 C 1040.78125 477.84375 1041.199219 475.917969 1041.78125 474.054688 L 1045.070312 462.738281 C 1047.53125 455.277344 1048.84375 447.496094 1050.40625 439.753906 C 1051.152344 435.898438 1051.984375 432.023438 1052.683594 428.152344 C 1053.28125 424.246094 1053.796875 420.339844 1054.226562 416.417969 C 1055.074219 408.574219 1055.722656 400.699219 1055.773438 392.820312 C 1056.140625 384.925781 1055.757812 377.066406 1055.507812 369.1875 C 1054.492188 353.480469 1052.265625 337.890625 1048.910156 322.636719 C 1045.4375 307.394531 1040.683594 292.554688 1035.097656 278.195312 C 1029.496094 263.820312 1022.601562 250.125 1015.222656 236.960938 C 1007.84375 223.765625 999.332031 211.453125 990.59375 199.644531 C 981.785156 187.882812 972.210938 177.015625 962.523438 166.660156 C 923.148438 125.691406 878.226562 97.320312 837.777344 79.667969 C 817.484375 70.878906 798.269531 64.632812 781.019531 60.347656 C 772.359375 58.394531 764.285156 56.414062 756.804688 55.285156 C 749.292969 54.089844 742.363281 53.34375 736.097656 52.894531 C 723.550781 51.882812 713.695312 52.480469 707.011719 52.53125 C 703.65625 52.511719 701.113281 52.925781 699.386719 53.003906 C 697.671875 53.140625 696.792969 53.210938 696.792969 53.210938 C 696.792969 53.210938 695.910156 53.285156 694.183594 53.421875 C 692.472656 53.597656 689.910156 53.6875 686.589844 54.113281 C 683.265625 54.589844 679.160156 55.167969 674.339844 55.847656 C 669.488281 56.4375 664.019531 57.816406 657.820312 58.964844 C 654.710938 59.503906 651.503906 60.410156 648.113281 61.277344 C 644.722656 62.152344 641.183594 63.074219 637.496094 64.035156 C 630.214844 66.417969 622.203125 68.597656 613.945312 71.890625 C 597.308594 78.058594 578.8125 86.230469 559.714844 97.359375 C 540.601562 108.441406 520.675781 122.171875 501.5625 139.21875 C 482.421875 156.195312 464.171875 176.515625 448.027344 199.789062 L 444.949219 204.140625 L 442.101562 208.660156 C 440.191406 211.683594 438.269531 214.726562 436.34375 217.785156 C 432.609375 223.949219 429.15625 230.382812 425.59375 236.796875 C 418.984375 249.925781 412.570312 263.4375 407.414062 277.679688 C 406.117188 281.21875 404.714844 284.742188 403.488281 288.351562 C 402.34375 291.988281 401.1875 295.613281 400.039062 299.269531 L 398.304688 304.753906 L 396.832031 310.320312 C 395.859375 314.042969 394.882812 317.765625 393.902344 321.503906 C 392.949219 325.246094 392.28125 329.085938 391.457031 332.875 C 390.730469 336.679688 389.730469 340.453125 389.222656 344.308594 C 388.074219 352.019531 386.640625 359.714844 386.011719 367.542969 C 385.628906 371.445312 385.152344 375.335938 384.835938 379.257812 L 384.226562 391.042969 L 383.914062 396.957031 L 383.917969 402.859375 L 383.914062 414.707031 C 384.03125 418.664062 384.308594 422.601562 384.496094 426.558594 C 384.71875 430.511719 384.820312 434.46875 385.386719 438.375 L 386.769531 450.15625 C 387.257812 454.078125 387.554688 458.035156 388.4375 461.890625 C 393.652344 493.050781 403.714844 523.332031 418.164062 550.820312 C 432.578125 578.328125 451.351562 602.972656 472.867188 623.515625 C 475.574219 626.058594 478.261719 628.617188 480.941406 631.160156 C 483.691406 633.621094 486.648438 635.828125 489.464844 638.15625 C 492.316406 640.464844 495.160156 642.761719 497.984375 645.039062 C 500.859375 647.246094 503.9375 649.175781 506.878906 651.269531 C 509.851562 653.296875 512.804688 655.324219 515.753906 657.351562 C 518.695312 659.363281 521.882812 660.957031 524.914062 662.785156 C 527.96875 664.566406 531.023438 666.308594 534.046875 668.054688 C 535.554688 668.953125 537.074219 669.816406 538.671875 670.515625 L 541.816406 672.027344 C 546.652344 674.335938 551.054688 676.449219 554.761719 678.226562 C 558.417969 680.054688 561.609375 681 563.621094 681.882812 C 567.410156 683.363281 570.734375 684.792969 573.792969 686.238281 C 575.320312 686.96875 576.785156 687.699219 578.210938 688.398438 C 579.660156 689.011719 581.070312 689.644531 582.449219 690.292969 C 587.984375 692.902344 593.105469 695.84375 599.285156 699.484375 C 592.222656 699.167969 586.238281 698.75 580.007812 697.804688 C 578.445312 697.570312 576.867188 697.320312 575.253906 697.007812 C 573.675781 696.609375 572.082031 696.125 570.402344 695.625 C 567.078125 694.597656 563.539062 693.367188 559.597656 691.855469 C 557.503906 690.972656 554.199219 690.007812 550.390625 688.113281 C 546.550781 686.285156 541.980469 684.109375 536.953125 681.714844 L 533.691406 680.152344 C 532.039062 679.421875 530.464844 678.542969 528.90625 677.613281 C 525.757812 675.800781 522.597656 673.972656 519.414062 672.144531 C 516.273438 670.25 512.96875 668.585938 509.910156 666.492188 C 506.851562 664.398438 503.78125 662.289062 500.699219 660.160156 C 497.640625 658.015625 494.453125 656.007812 491.464844 653.710938 C 488.527344 651.335938 485.578125 648.960938 482.617188 646.566406 C 479.683594 644.140625 476.621094 641.847656 473.769531 639.285156 C 470.976562 636.660156 468.179688 634 465.375 631.34375 C 443.015625 610.035156 423.515625 584.410156 408.558594 555.855469 C 393.554688 527.320312 383.136719 495.925781 377.746094 463.683594 C 376.835938 459.695312 376.527344 455.609375 376.019531 451.554688 L 374.589844 439.386719 C 374.011719 435.332031 373.902344 431.242188 373.675781 427.171875 C 373.480469 423.101562 373.195312 419.046875 373.078125 414.972656 L 373.078125 402.773438 L 373.085938 396.660156 L 373.398438 390.59375 L 374.03125 378.445312 C 374.355469 374.40625 374.835938 370.398438 375.242188 366.378906 C 375.894531 358.316406 377.363281 350.390625 378.550781 342.460938 C 379.070312 338.472656 380.097656 334.601562 380.847656 330.679688 C 381.699219 326.773438 382.394531 322.851562 383.375 318.996094 C 384.382812 315.140625 385.378906 311.300781 386.378906 307.460938 L 387.898438 301.726562 L 389.683594 296.09375 C 390.871094 292.339844 392.054688 288.597656 393.242188 284.859375 C 394.503906 281.152344 395.945312 277.515625 397.28125 273.859375 C 402.597656 259.214844 409.1875 245.289062 416.003906 231.777344 C 419.671875 225.164062 423.234375 218.546875 427.085938 212.183594 C 429.070312 209.042969 431.046875 205.898438 433.019531 202.78125 L 435.960938 198.121094 L 439.132812 193.640625 C 455.773438 169.652344 474.636719 148.652344 494.402344 131.128906 C 514.117188 113.550781 534.632812 99.417969 554.3125 88.011719 C 573.992188 76.558594 593.039062 68.136719 610.207031 61.777344 C 618.730469 58.386719 627.007812 56.121094 634.503906 53.679688 C 638.324219 52.6875 641.980469 51.734375 645.488281 50.824219 C 648.996094 49.929688 652.320312 49 655.527344 48.433594 C 661.957031 47.234375 667.609375 45.832031 672.644531 45.207031 C 677.648438 44.5 681.902344 43.902344 685.34375 43.417969 C 688.78125 42.96875 691.457031 42.878906 693.234375 42.695312 C 695.015625 42.554688 695.945312 42.476562 695.945312 42.476562 C 695.945312 42.476562 696.859375 42.402344 698.636719 42.261719 C 700.433594 42.183594 703.074219 41.761719 706.566406 41.765625 C 713.527344 41.710938 723.78125 41.097656 736.863281 42.144531 C 743.410156 42.613281 750.65625 43.390625 758.5 44.644531 C 766.394531 45.832031 774.703125 47.863281 783.628906 49.882812 C 801.414062 54.296875 821.207031 60.730469 842.082031 69.773438 C 883.710938 87.925781 929.832031 117.050781 970.332031 159.175781 C 980.304688 169.820312 990.144531 181.007812 999.234375 193.121094 C 1008.242188 205.28125 1017 217.96875 1024.628906 231.59375 C 1032.242188 245.191406 1039.371094 259.332031 1045.171875 274.207031 C 1050.953125 289.066406 1055.875 304.4375 1059.496094 320.242188 C 1062.96875 336.082031 1065.28125 352.253906 1066.328125 368.574219 C 1066.609375 376.75 1066.976562 384.925781 1066.609375 393.121094 " fill-opacity="1" fill-rule="nonzero"/></g></svg>