<svg xmlns="http://www.w3.org/2000/svg" xmlns:xlink="http://www.w3.org/1999/xlink" width="538" zoomAndPan="magnify" viewBox="0 0 403.5 407.249997" height="543" preserveAspectRatio="xMidYMid meet" version="1.0"><defs><g/><clipPath id="354b73516e"><path d="M 5 78 L 301 78 L 301 401 L 5 401 Z M 5 78 " clip-rule="nonzero"/></clipPath><clipPath id="511497483d"><path d="M 0.125 171.757812 L 167.722656 73.183594 L 305.574219 307.5625 L 137.972656 406.136719 Z M 0.125 171.757812 " clip-rule="nonzero"/></clipPath><clipPath id="6491634fab"><path d="M 12.382812 164.546875 L 155.460938 80.394531 C 162.234375 76.414062 170.953125 78.671875 174.933594 85.445312 L 298.179688 294.988281 C 302.160156 301.761719 299.898438 310.476562 293.128906 314.460938 L 150.050781 398.613281 C 143.277344 402.597656 134.5625 400.335938 130.578125 393.5625 L 7.335938 184.019531 C 3.351562 177.25 5.613281 168.53125 12.382812 164.546875 Z M 12.382812 164.546875 " clip-rule="nonzero"/></clipPath><clipPath id="c70afdeec7"><path d="M 0 0 L 296 0 L 296 323 L 0 323 Z M 0 0 " clip-rule="nonzero"/></clipPath><clipPath id="a02245de0f"><path d="M -4.875 93.757812 L 162.722656 -4.816406 L 300.574219 229.5625 L 132.972656 328.136719 Z M -4.875 93.757812 " clip-rule="nonzero"/></clipPath><clipPath id="0cdcd855ae"><path d="M 7.382812 86.546875 L 150.460938 2.394531 C 157.234375 -1.585938 165.953125 0.671875 169.933594 7.445312 L 293.179688 216.988281 C 297.160156 223.761719 294.898438 232.476562 288.128906 236.460938 L 145.050781 320.613281 C 138.277344 324.597656 129.5625 322.335938 125.578125 315.5625 L 2.335938 106.019531 C -1.648438 99.25 0.613281 90.53125 7.382812 86.546875 Z M 7.382812 86.546875 " clip-rule="nonzero"/></clipPath><clipPath id="71b1d8a7db"><path d="M -4.875 93.757812 L 162.722656 -4.816406 L 300.574219 229.5625 L 132.972656 328.136719 Z M -4.875 93.757812 " clip-rule="nonzero"/></clipPath><clipPath id="046163a630"><path d="M -4.878906 93.757812 L 162.722656 -4.816406 L 300.386719 229.246094 L 132.789062 327.820312 Z M -4.878906 93.757812 " clip-rule="nonzero"/></clipPath><linearGradient x1="128" gradientTransform="matrix(0.654686, -0.385056, 0.385056, 0.654686, -4.878177, 93.756541)" y1="-106.046599" x2="128" gradientUnits="userSpaceOnUse" y2="463.577319" id="6e6e5ea5b3"><stop stop-opacity="1" stop-color="rgb(100%, 100%, 100%)" offset="0"/><stop stop-opacity="1" stop-color="rgb(100%, 100%, 100%)" offset="0.125"/><stop stop-opacity="1" stop-color="rgb(99.966431%, 99.977112%, 99.995422%)" offset="0.1875"/><stop stop-opacity="1" stop-color="rgb(99.740601%, 99.821472%, 99.963379%)" offset="0.195312"/><stop stop-opacity="1" stop-color="rgb(99.354553%, 99.559021%, 99.908447%)" offset="0.203125"/><stop stop-opacity="1" stop-color="rgb(98.968506%, 99.295044%, 99.855042%)" offset="0.210938"/><stop stop-opacity="1" stop-color="rgb(98.583984%, 99.031067%, 99.801636%)" offset="0.21875"/><stop stop-opacity="1" stop-color="rgb(98.197937%, 98.76709%, 99.74823%)" offset="0.226563"/><stop stop-opacity="1" stop-color="rgb(97.81189%, 98.503113%, 99.694824%)" offset="0.234375"/><stop stop-opacity="1" stop-color="rgb(97.425842%, 98.240662%, 99.641418%)" offset="0.242188"/><stop stop-opacity="1" stop-color="rgb(97.041321%, 97.976685%, 99.586487%)" offset="0.25"/><stop stop-opacity="1" stop-color="rgb(96.655273%, 97.712708%, 99.533081%)" offset="0.257812"/><stop stop-opacity="1" stop-color="rgb(96.269226%, 97.44873%, 99.479675%)" offset="0.265625"/><stop stop-opacity="1" stop-color="rgb(95.884705%, 97.186279%, 99.42627%)" offset="0.273438"/><stop stop-opacity="1" stop-color="rgb(95.498657%, 96.922302%, 99.372864%)" offset="0.28125"/><stop stop-opacity="1" stop-color="rgb(95.11261%, 96.658325%, 99.319458%)" offset="0.289062"/><stop stop-opacity="1" stop-color="rgb(94.726562%, 96.394348%, 99.264526%)" offset="0.296875"/><stop stop-opacity="1" stop-color="rgb(94.342041%, 96.130371%, 99.211121%)" offset="0.304688"/><stop stop-opacity="1" stop-color="rgb(93.955994%, 95.86792%, 99.157715%)" offset="0.3125"/><stop stop-opacity="1" stop-color="rgb(93.569946%, 95.603943%, 99.104309%)" offset="0.320312"/><stop stop-opacity="1" stop-color="rgb(93.185425%, 95.339966%, 99.050903%)" offset="0.328125"/><stop stop-opacity="1" stop-color="rgb(92.799377%, 95.075989%, 98.997498%)" offset="0.335938"/><stop stop-opacity="1" stop-color="rgb(92.41333%, 94.813538%, 98.942566%)" offset="0.34375"/><stop stop-opacity="1" stop-color="rgb(92.027283%, 94.549561%, 98.88916%)" offset="0.351562"/><stop stop-opacity="1" stop-color="rgb(91.642761%, 94.285583%, 98.835754%)" offset="0.359375"/><stop stop-opacity="1" stop-color="rgb(91.256714%, 94.021606%, 98.782349%)" offset="0.367188"/><stop stop-opacity="1" stop-color="rgb(90.870667%, 93.757629%, 98.728943%)" offset="0.375"/><stop stop-opacity="1" stop-color="rgb(90.486145%, 93.495178%, 98.675537%)" offset="0.382813"/><stop stop-opacity="1" stop-color="rgb(90.100098%, 93.231201%, 98.622131%)" offset="0.390625"/><stop stop-opacity="1" stop-color="rgb(89.71405%, 92.967224%, 98.5672%)" offset="0.398438"/><stop stop-opacity="1" stop-color="rgb(89.328003%, 92.703247%, 98.513794%)" offset="0.40625"/><stop stop-opacity="1" stop-color="rgb(88.943481%, 92.440796%, 98.460388%)" offset="0.414062"/><stop stop-opacity="1" stop-color="rgb(88.557434%, 92.176819%, 98.406982%)" offset="0.421875"/><stop stop-opacity="1" stop-color="rgb(88.171387%, 91.912842%, 98.353577%)" offset="0.429688"/><stop stop-opacity="1" stop-color="rgb(87.785339%, 91.648865%, 98.300171%)" offset="0.4375"/><stop stop-opacity="1" stop-color="rgb(87.400818%, 91.386414%, 98.245239%)" offset="0.445313"/><stop stop-opacity="1" stop-color="rgb(87.014771%, 91.122437%, 98.191833%)" offset="0.453125"/><stop stop-opacity="1" stop-color="rgb(86.628723%, 90.858459%, 98.138428%)" offset="0.460938"/><stop stop-opacity="1" stop-color="rgb(86.244202%, 90.594482%, 98.085022%)" offset="0.46875"/><stop stop-opacity="1" stop-color="rgb(85.858154%, 90.330505%, 98.031616%)" offset="0.476562"/><stop stop-opacity="1" stop-color="rgb(85.472107%, 90.068054%, 97.97821%)" offset="0.484375"/><stop stop-opacity="1" stop-color="rgb(85.08606%, 89.804077%, 97.923279%)" offset="0.492188"/><stop stop-opacity="1" stop-color="rgb(84.701538%, 89.5401%, 97.869873%)" offset="0.5"/><stop stop-opacity="1" stop-color="rgb(84.315491%, 89.276123%, 97.816467%)" offset="0.507812"/><stop stop-opacity="1" stop-color="rgb(83.929443%, 89.013672%, 97.763062%)" offset="0.515625"/><stop stop-opacity="1" stop-color="rgb(83.544922%, 88.749695%, 97.709656%)" offset="0.523438"/><stop stop-opacity="1" stop-color="rgb(83.158875%, 88.485718%, 97.65625%)" offset="0.53125"/><stop stop-opacity="1" stop-color="rgb(82.772827%, 88.221741%, 97.602844%)" offset="0.539062"/><stop stop-opacity="1" stop-color="rgb(82.38678%, 87.957764%, 97.547913%)" offset="0.546875"/><stop stop-opacity="1" stop-color="rgb(82.002258%, 87.695312%, 97.494507%)" offset="0.554688"/><stop stop-opacity="1" stop-color="rgb(81.616211%, 87.431335%, 97.441101%)" offset="0.5625"/><stop stop-opacity="1" stop-color="rgb(81.230164%, 87.167358%, 97.387695%)" offset="0.570312"/><stop stop-opacity="1" stop-color="rgb(80.845642%, 86.903381%, 97.33429%)" offset="0.578125"/><stop stop-opacity="1" stop-color="rgb(80.459595%, 86.64093%, 97.280884%)" offset="0.585937"/><stop stop-opacity="1" stop-color="rgb(80.073547%, 86.376953%, 97.225952%)" offset="0.59375"/><stop stop-opacity="1" stop-color="rgb(79.6875%, 86.112976%, 97.172546%)" offset="0.601562"/><stop stop-opacity="1" stop-color="rgb(79.302979%, 85.848999%, 97.119141%)" offset="0.609375"/><stop stop-opacity="1" stop-color="rgb(78.916931%, 85.585022%, 97.065735%)" offset="0.617188"/><stop stop-opacity="1" stop-color="rgb(78.530884%, 85.322571%, 97.012329%)" offset="0.625"/><stop stop-opacity="1" stop-color="rgb(78.146362%, 85.058594%, 96.958923%)" offset="0.632812"/><stop stop-opacity="1" stop-color="rgb(77.760315%, 84.794617%, 96.903992%)" offset="0.640625"/><stop stop-opacity="1" stop-color="rgb(77.374268%, 84.53064%, 96.850586%)" offset="0.648437"/><stop stop-opacity="1" stop-color="rgb(76.98822%, 84.268188%, 96.79718%)" offset="0.65625"/><stop stop-opacity="1" stop-color="rgb(76.603699%, 84.004211%, 96.743774%)" offset="0.664062"/><stop stop-opacity="1" stop-color="rgb(76.217651%, 83.740234%, 96.690369%)" offset="0.671875"/><stop stop-opacity="1" stop-color="rgb(75.831604%, 83.476257%, 96.636963%)" offset="0.679688"/><stop stop-opacity="1" stop-color="rgb(75.447083%, 83.21228%, 96.583557%)" offset="0.6875"/><stop stop-opacity="1" stop-color="rgb(75.061035%, 82.949829%, 96.528625%)" offset="0.695312"/><stop stop-opacity="1" stop-color="rgb(74.674988%, 82.685852%, 96.47522%)" offset="0.703125"/><stop stop-opacity="1" stop-color="rgb(74.28894%, 82.421875%, 96.421814%)" offset="0.710937"/><stop stop-opacity="1" stop-color="rgb(73.904419%, 82.157898%, 96.368408%)" offset="0.71875"/><stop stop-opacity="1" stop-color="rgb(73.518372%, 81.895447%, 96.315002%)" offset="0.726562"/><stop stop-opacity="1" stop-color="rgb(73.132324%, 81.63147%, 96.261597%)" offset="0.734375"/><stop stop-opacity="1" stop-color="rgb(72.747803%, 81.367493%, 96.206665%)" offset="0.742188"/><stop stop-opacity="1" stop-color="rgb(72.361755%, 81.103516%, 96.153259%)" offset="0.75"/><stop stop-opacity="1" stop-color="rgb(71.975708%, 80.841064%, 96.099854%)" offset="0.757812"/><stop stop-opacity="1" stop-color="rgb(71.589661%, 80.577087%, 96.046448%)" offset="0.765625"/><stop stop-opacity="1" stop-color="rgb(71.205139%, 80.31311%, 95.993042%)" offset="0.773437"/><stop stop-opacity="1" stop-color="rgb(70.819092%, 80.049133%, 95.939636%)" offset="0.78125"/><stop stop-opacity="1" stop-color="rgb(70.433044%, 79.785156%, 95.884705%)" offset="0.789062"/><stop stop-opacity="1" stop-color="rgb(70.046997%, 79.522705%, 95.831299%)" offset="0.796875"/><stop stop-opacity="1" stop-color="rgb(69.662476%, 79.258728%, 95.777893%)" offset="0.804688"/><stop stop-opacity="1" stop-color="rgb(69.276428%, 78.994751%, 95.724487%)" offset="0.8125"/><stop stop-opacity="1" stop-color="rgb(69.050598%, 78.840637%, 95.69397%)" offset="0.875"/><stop stop-opacity="1" stop-color="rgb(69.018555%, 78.819275%, 95.689392%)" offset="1"/></linearGradient><clipPath id="553d62abaf"><rect x="0" width="296" y="0" height="323"/></clipPath><clipPath id="1825264f2a"><path d="M 147 86 L 400 86 L 400 393 L 147 393 Z M 147 86 " clip-rule="nonzero"/></clipPath><clipPath id="210b59b25a"><path d="M 214.835938 83.492188 L 402.652344 133.804688 L 332.292969 396.457031 L 144.476562 346.140625 Z M 214.835938 83.492188 " clip-rule="nonzero"/></clipPath><clipPath id="129adfd303"><path d="M 228.578125 87.171875 L 388.914062 130.125 C 396.503906 132.160156 401.007812 139.957031 398.972656 147.546875 L 336.066406 382.367188 C 334.035156 389.953125 326.234375 394.457031 318.648438 392.425781 L 158.308594 349.472656 C 150.722656 347.441406 146.21875 339.640625 148.25 332.054688 L 211.15625 97.230469 C 213.1875 89.644531 220.988281 85.140625 228.578125 87.171875 Z M 228.578125 87.171875 " clip-rule="nonzero"/></clipPath><clipPath id="cf37a62e39"><path d="M 0 0 L 253 0 L 253 307 L 0 307 Z M 0 0 " clip-rule="nonzero"/></clipPath><clipPath id="933b546195"><path d="M 67.835938 -2.507812 L 255.652344 47.804688 L 185.292969 310.457031 L -2.523438 260.140625 Z M 67.835938 -2.507812 " clip-rule="nonzero"/></clipPath><clipPath id="e636402bc7"><path d="M 81.578125 1.171875 L 241.914062 44.125 C 249.503906 46.160156 254.007812 53.957031 251.972656 61.546875 L 189.066406 296.367188 C 187.035156 303.953125 179.234375 308.457031 171.648438 306.425781 L 11.308594 263.472656 C 3.722656 261.441406 -0.78125 253.640625 1.25 246.054688 L 64.15625 11.230469 C 66.1875 3.644531 73.988281 -0.859375 81.578125 1.171875 Z M 81.578125 1.171875 " clip-rule="nonzero"/></clipPath><clipPath id="4e91b19225"><path d="M 67.835938 -2.507812 L 255.652344 47.804688 L 185.292969 310.457031 L -2.523438 260.140625 Z M 67.835938 -2.507812 " clip-rule="nonzero"/></clipPath><clipPath id="da13e6b31c"><path d="M 67.839844 -2.511719 L 255.65625 47.804688 L 185.386719 310.101562 L -2.429688 259.789062 Z M 67.839844 -2.511719 " clip-rule="nonzero"/></clipPath><linearGradient x1="128" gradientTransform="matrix(0.733658, 0.196539, -0.196539, 0.733658, 67.838032, -2.510257)" y1="-61.326733" x2="128" gradientUnits="userSpaceOnUse" y2="418.857486" id="595404aa2a"><stop stop-opacity="1" stop-color="rgb(100%, 100%, 100%)" offset="0"/><stop stop-opacity="1" stop-color="rgb(100%, 100%, 100%)" offset="0.125"/><stop stop-opacity="1" stop-color="rgb(99.893188%, 99.926758%, 99.984741%)" offset="0.132812"/><stop stop-opacity="1" stop-color="rgb(99.623108%, 99.742126%, 99.946594%)" offset="0.140625"/><stop stop-opacity="1" stop-color="rgb(99.298096%, 99.520874%, 99.902344%)" offset="0.148438"/><stop stop-opacity="1" stop-color="rgb(98.973083%, 99.298096%, 99.856567%)" offset="0.15625"/><stop stop-opacity="1" stop-color="rgb(98.648071%, 99.076843%, 99.810791%)" offset="0.164062"/><stop stop-opacity="1" stop-color="rgb(98.323059%, 98.854065%, 99.766541%)" offset="0.171875"/><stop stop-opacity="1" stop-color="rgb(97.998047%, 98.631287%, 99.720764%)" offset="0.179688"/><stop stop-opacity="1" stop-color="rgb(97.673035%, 98.410034%, 99.674988%)" offset="0.1875"/><stop stop-opacity="1" stop-color="rgb(97.348022%, 98.187256%, 99.630737%)" offset="0.195313"/><stop stop-opacity="1" stop-color="rgb(97.02301%, 97.964478%, 99.584961%)" offset="0.203125"/><stop stop-opacity="1" stop-color="rgb(96.697998%, 97.743225%, 99.539185%)" offset="0.210938"/><stop stop-opacity="1" stop-color="rgb(96.372986%, 97.520447%, 99.494934%)" offset="0.21875"/><stop stop-opacity="1" stop-color="rgb(96.047974%, 97.297668%, 99.449158%)" offset="0.226562"/><stop stop-opacity="1" stop-color="rgb(95.722961%, 97.076416%, 99.404907%)" offset="0.234375"/><stop stop-opacity="1" stop-color="rgb(95.397949%, 96.853638%, 99.359131%)" offset="0.242188"/><stop stop-opacity="1" stop-color="rgb(95.072937%, 96.630859%, 99.313354%)" offset="0.25"/><stop stop-opacity="1" stop-color="rgb(94.747925%, 96.409607%, 99.269104%)" offset="0.257812"/><stop stop-opacity="1" stop-color="rgb(94.422913%, 96.186829%, 99.223328%)" offset="0.265625"/><stop stop-opacity="1" stop-color="rgb(94.0979%, 95.96405%, 99.177551%)" offset="0.273438"/><stop stop-opacity="1" stop-color="rgb(93.772888%, 95.742798%, 99.133301%)" offset="0.28125"/><stop stop-opacity="1" stop-color="rgb(93.447876%, 95.52002%, 99.087524%)" offset="0.289062"/><stop stop-opacity="1" stop-color="rgb(93.122864%, 95.298767%, 99.041748%)" offset="0.296875"/><stop stop-opacity="1" stop-color="rgb(92.797852%, 95.075989%, 98.997498%)" offset="0.304688"/><stop stop-opacity="1" stop-color="rgb(92.472839%, 94.85321%, 98.951721%)" offset="0.3125"/><stop stop-opacity="1" stop-color="rgb(92.147827%, 94.631958%, 98.905945%)" offset="0.320312"/><stop stop-opacity="1" stop-color="rgb(91.822815%, 94.40918%, 98.861694%)" offset="0.328125"/><stop stop-opacity="1" stop-color="rgb(91.497803%, 94.186401%, 98.815918%)" offset="0.335938"/><stop stop-opacity="1" stop-color="rgb(91.172791%, 93.965149%, 98.771667%)" offset="0.34375"/><stop stop-opacity="1" stop-color="rgb(90.846252%, 93.742371%, 98.725891%)" offset="0.351562"/><stop stop-opacity="1" stop-color="rgb(90.52124%, 93.519592%, 98.680115%)" offset="0.359375"/><stop stop-opacity="1" stop-color="rgb(90.196228%, 93.29834%, 98.635864%)" offset="0.367188"/><stop stop-opacity="1" stop-color="rgb(89.871216%, 93.075562%, 98.590088%)" offset="0.375"/><stop stop-opacity="1" stop-color="rgb(89.546204%, 92.852783%, 98.544312%)" offset="0.382812"/><stop stop-opacity="1" stop-color="rgb(89.221191%, 92.631531%, 98.500061%)" offset="0.390625"/><stop stop-opacity="1" stop-color="rgb(88.896179%, 92.408752%, 98.454285%)" offset="0.398437"/><stop stop-opacity="1" stop-color="rgb(88.571167%, 92.185974%, 98.408508%)" offset="0.40625"/><stop stop-opacity="1" stop-color="rgb(88.246155%, 91.964722%, 98.364258%)" offset="0.414062"/><stop stop-opacity="1" stop-color="rgb(87.921143%, 91.741943%, 98.318481%)" offset="0.421875"/><stop stop-opacity="1" stop-color="rgb(87.59613%, 91.520691%, 98.274231%)" offset="0.429688"/><stop stop-opacity="1" stop-color="rgb(87.271118%, 91.297913%, 98.228455%)" offset="0.4375"/><stop stop-opacity="1" stop-color="rgb(86.946106%, 91.075134%, 98.182678%)" offset="0.445312"/><stop stop-opacity="1" stop-color="rgb(86.621094%, 90.853882%, 98.138428%)" offset="0.453125"/><stop stop-opacity="1" stop-color="rgb(86.296082%, 90.631104%, 98.092651%)" offset="0.460937"/><stop stop-opacity="1" stop-color="rgb(85.971069%, 90.408325%, 98.046875%)" offset="0.46875"/><stop stop-opacity="1" stop-color="rgb(85.646057%, 90.187073%, 98.002625%)" offset="0.476562"/><stop stop-opacity="1" stop-color="rgb(85.321045%, 89.964294%, 97.956848%)" offset="0.484375"/><stop stop-opacity="1" stop-color="rgb(84.996033%, 89.741516%, 97.911072%)" offset="0.492188"/><stop stop-opacity="1" stop-color="rgb(84.671021%, 89.520264%, 97.866821%)" offset="0.5"/><stop stop-opacity="1" stop-color="rgb(84.346008%, 89.297485%, 97.821045%)" offset="0.507813"/><stop stop-opacity="1" stop-color="rgb(84.020996%, 89.074707%, 97.776794%)" offset="0.515625"/><stop stop-opacity="1" stop-color="rgb(83.695984%, 88.853455%, 97.731018%)" offset="0.523438"/><stop stop-opacity="1" stop-color="rgb(83.370972%, 88.630676%, 97.685242%)" offset="0.53125"/><stop stop-opacity="1" stop-color="rgb(83.045959%, 88.409424%, 97.640991%)" offset="0.539062"/><stop stop-opacity="1" stop-color="rgb(82.720947%, 88.186646%, 97.595215%)" offset="0.546875"/><stop stop-opacity="1" stop-color="rgb(82.395935%, 87.963867%, 97.549438%)" offset="0.554688"/><stop stop-opacity="1" stop-color="rgb(82.069397%, 87.742615%, 97.505188%)" offset="0.5625"/><stop stop-opacity="1" stop-color="rgb(81.744385%, 87.519836%, 97.459412%)" offset="0.570312"/><stop stop-opacity="1" stop-color="rgb(81.419373%, 87.297058%, 97.413635%)" offset="0.578125"/><stop stop-opacity="1" stop-color="rgb(81.09436%, 87.075806%, 97.369385%)" offset="0.585938"/><stop stop-opacity="1" stop-color="rgb(80.769348%, 86.853027%, 97.323608%)" offset="0.59375"/><stop stop-opacity="1" stop-color="rgb(80.444336%, 86.630249%, 97.279358%)" offset="0.601562"/><stop stop-opacity="1" stop-color="rgb(80.119324%, 86.408997%, 97.233582%)" offset="0.609375"/><stop stop-opacity="1" stop-color="rgb(79.794312%, 86.186218%, 97.187805%)" offset="0.617188"/><stop stop-opacity="1" stop-color="rgb(79.469299%, 85.96344%, 97.143555%)" offset="0.625"/><stop stop-opacity="1" stop-color="rgb(79.144287%, 85.742188%, 97.097778%)" offset="0.632812"/><stop stop-opacity="1" stop-color="rgb(78.819275%, 85.519409%, 97.052002%)" offset="0.640625"/><stop stop-opacity="1" stop-color="rgb(78.494263%, 85.296631%, 97.007751%)" offset="0.648437"/><stop stop-opacity="1" stop-color="rgb(78.16925%, 85.075378%, 96.961975%)" offset="0.65625"/><stop stop-opacity="1" stop-color="rgb(77.844238%, 84.8526%, 96.916199%)" offset="0.664062"/><stop stop-opacity="1" stop-color="rgb(77.519226%, 84.631348%, 96.871948%)" offset="0.671875"/><stop stop-opacity="1" stop-color="rgb(77.194214%, 84.408569%, 96.826172%)" offset="0.679687"/><stop stop-opacity="1" stop-color="rgb(76.869202%, 84.185791%, 96.780396%)" offset="0.6875"/><stop stop-opacity="1" stop-color="rgb(76.544189%, 83.964539%, 96.736145%)" offset="0.695312"/><stop stop-opacity="1" stop-color="rgb(76.219177%, 83.74176%, 96.690369%)" offset="0.703125"/><stop stop-opacity="1" stop-color="rgb(75.894165%, 83.518982%, 96.646118%)" offset="0.710938"/><stop stop-opacity="1" stop-color="rgb(75.569153%, 83.297729%, 96.600342%)" offset="0.71875"/><stop stop-opacity="1" stop-color="rgb(75.244141%, 83.074951%, 96.554565%)" offset="0.726562"/><stop stop-opacity="1" stop-color="rgb(74.919128%, 82.852173%, 96.510315%)" offset="0.734375"/><stop stop-opacity="1" stop-color="rgb(74.594116%, 82.63092%, 96.464539%)" offset="0.742188"/><stop stop-opacity="1" stop-color="rgb(74.269104%, 82.408142%, 96.418762%)" offset="0.75"/><stop stop-opacity="1" stop-color="rgb(73.944092%, 82.185364%, 96.374512%)" offset="0.757812"/><stop stop-opacity="1" stop-color="rgb(73.61908%, 81.964111%, 96.328735%)" offset="0.765625"/><stop stop-opacity="1" stop-color="rgb(73.292542%, 81.741333%, 96.282959%)" offset="0.773437"/><stop stop-opacity="1" stop-color="rgb(72.967529%, 81.518555%, 96.238708%)" offset="0.78125"/><stop stop-opacity="1" stop-color="rgb(72.642517%, 81.297302%, 96.192932%)" offset="0.789062"/><stop stop-opacity="1" stop-color="rgb(72.317505%, 81.074524%, 96.148682%)" offset="0.796875"/><stop stop-opacity="1" stop-color="rgb(71.992493%, 80.853271%, 96.102905%)" offset="0.804687"/><stop stop-opacity="1" stop-color="rgb(71.66748%, 80.630493%, 96.057129%)" offset="0.8125"/><stop stop-opacity="1" stop-color="rgb(71.342468%, 80.407715%, 96.012878%)" offset="0.820312"/><stop stop-opacity="1" stop-color="rgb(71.017456%, 80.186462%, 95.967102%)" offset="0.828125"/><stop stop-opacity="1" stop-color="rgb(70.692444%, 79.963684%, 95.921326%)" offset="0.835938"/><stop stop-opacity="1" stop-color="rgb(70.367432%, 79.740906%, 95.877075%)" offset="0.84375"/><stop stop-opacity="1" stop-color="rgb(70.042419%, 79.519653%, 95.831299%)" offset="0.851562"/><stop stop-opacity="1" stop-color="rgb(69.717407%, 79.296875%, 95.785522%)" offset="0.859375"/><stop stop-opacity="1" stop-color="rgb(69.392395%, 79.074097%, 95.741272%)" offset="0.867188"/><stop stop-opacity="1" stop-color="rgb(69.12384%, 78.890991%, 95.703125%)" offset="0.875"/><stop stop-opacity="1" stop-color="rgb(69.018555%, 78.819275%, 95.689392%)" offset="1"/></linearGradient><clipPath id="06d31aebf4"><rect x="0" width="253" y="0" height="307"/></clipPath><clipPath id="b9e368958d"><path d="M 237 53 L 345 53 L 345 87 L 237 87 Z M 237 53 " clip-rule="nonzero"/></clipPath><clipPath id="216654155b"><path d="M 297.292969 14.054688 L 352.617188 79.035156 L 291.628906 130.964844 L 236.300781 65.984375 Z M 297.292969 14.054688 " clip-rule="nonzero"/></clipPath><clipPath id="4210083942"><path d="M 297.292969 14.054688 L 352.617188 79.035156 L 291.628906 130.964844 L 236.300781 65.984375 Z M 297.292969 14.054688 " clip-rule="nonzero"/></clipPath><clipPath id="6ae369c682"><path d="M 49 24 L 159 24 L 159 136 L 49 136 Z M 49 24 " clip-rule="nonzero"/></clipPath><clipPath id="3140fa2264"><path d="M 158.523438 59.320312 L 120.820312 135.882812 L 48.957031 100.492188 L 86.664062 23.929688 Z M 158.523438 59.320312 " clip-rule="nonzero"/></clipPath><clipPath id="ed9c235413"><path d="M 9 31 L 109 31 L 109 82 L 9 82 Z M 9 31 " clip-rule="nonzero"/></clipPath><clipPath id="8a80ca1947"><path d="M 109.523438 35.320312 L 71.820312 111.882812 L -0.0429688 76.492188 L 37.664062 -0.0703125 Z M 109.523438 35.320312 " clip-rule="nonzero"/></clipPath><clipPath id="b2e13c470c"><path d="M 37.839844 0.0195312 L 0.136719 76.582031 L 71.996094 111.96875 L 109.703125 35.410156 Z M 37.839844 0.0195312 " clip-rule="nonzero"/></clipPath><clipPath id="370dd68d1c"><rect x="0" width="110" y="0" height="112"/></clipPath><clipPath id="af14c3236e"><path d="M 53 107 L 163 107 L 163 174 L 53 174 Z M 53 107 " clip-rule="nonzero"/></clipPath><clipPath id="c16af5b82d"><path d="M 52.175781 167.410156 L 159.84375 105.359375 L 164.703125 113.789062 L 57.035156 175.84375 Z M 52.175781 167.410156 " clip-rule="nonzero"/></clipPath><clipPath id="041f07e430"><path d="M 52.175781 167.410156 L 159.84375 105.359375 L 164.703125 113.789062 L 57.035156 175.84375 Z M 52.175781 167.410156 " clip-rule="nonzero"/></clipPath><clipPath id="b02b30d617"><path d="M 53 140 L 105 140 L 105 174 L 53 174 Z M 53 140 " clip-rule="nonzero"/></clipPath><clipPath id="47bb3c3d72"><path d="M 52.175781 167.410156 L 159.84375 105.359375 L 164.703125 113.789062 L 57.035156 175.84375 Z M 52.175781 167.410156 " clip-rule="nonzero"/></clipPath><clipPath id="e32ec37769"><path d="M 52.175781 167.410156 L 159.84375 105.359375 L 164.703125 113.789062 L 57.035156 175.84375 Z M 52.175781 167.410156 " clip-rule="nonzero"/></clipPath></defs><g clip-path="url(#354b73516e)"><g clip-path="url(#511497483d)"><g clip-path="url(#6491634fab)"><g transform="matrix(1, 0, 0, 1, 5, 78)"><g clip-path="url(#553d62abaf)"><g clip-path="url(#c70afdeec7)"><g clip-path="url(#a02245de0f)"><g clip-path="url(#0cdcd855ae)"><g clip-path="url(#71b1d8a7db)"><g clip-path="url(#046163a630)"><path fill="url(#6e6e5ea5b3)" d="M -144.1875 82.246094 L 75.152344 455.171875 L 439.699219 240.761719 L 220.363281 -132.164062 Z M -144.1875 82.246094 " fill-rule="nonzero"/></g></g></g></g></g></g></g></g></g></g><g clip-path="url(#1825264f2a)"><g clip-path="url(#210b59b25a)"><g clip-path="url(#129adfd303)"><g transform="matrix(1, 0, 0, 1, 147, 86)"><g clip-path="url(#06d31aebf4)"><g clip-path="url(#cf37a62e39)"><g clip-path="url(#933b546195)"><g clip-path="url(#e636402bc7)"><g clip-path="url(#4e91b19225)"><g clip-path="url(#da13e6b31c)"><path fill="url(#595404aa2a)" d="M 16.277344 -64.542969 L -78.097656 287.746094 L 236.945312 372.144531 L 331.320312 19.851562 Z M 16.277344 -64.542969 " fill-rule="nonzero"/></g></g></g></g></g></g></g></g></g></g><g clip-path="url(#b9e368958d)"><g clip-path="url(#216654155b)"><g clip-path="url(#4210083942)"><path fill="#74cc00" d="M 344.367188 84.269531 C 342.152344 77.152344 339.921875 70.035156 337.695312 62.921875 C 336.988281 60.652344 333.3125 61.238281 333.992188 63.582031 C 335.167969 67.648438 336.339844 71.710938 337.519531 75.777344 C 308.722656 54.660156 270.058594 44.164062 237.90625 64.828125 C 236.902344 65.472656 237.609375 67.179688 238.71875 66.566406 C 272.753906 47.796875 311.1875 58.332031 339.738281 82.117188 C 339.75 82.164062 339.765625 82.207031 339.78125 82.253906 C 335.375 81.566406 330.972656 80.871094 326.554688 80.261719 C 324.175781 79.929688 323.953125 83.542969 326.261719 83.9375 C 331.609375 84.855469 336.972656 85.671875 342.332031 86.503906 C 343.445312 86.675781 344.71875 85.40625 344.363281 84.265625 Z M 344.367188 84.269531 " fill-opacity="1" fill-rule="nonzero"/></g></g></g><g clip-path="url(#6ae369c682)"><g clip-path="url(#3140fa2264)"><g transform="matrix(1, 0, 0, 1, 49, 24)"><g clip-path="url(#370dd68d1c)"><g clip-path="url(#ed9c235413)"><g clip-path="url(#8a80ca1947)"><g clip-path="url(#b2e13c470c)"><path fill="#ff2828" d="M 9.417969 79.632812 C 9.820312 72.1875 10.238281 64.742188 10.652344 57.300781 C 10.78125 54.925781 14.488281 54.589844 14.40625 57.03125 C 14.261719 61.261719 14.121094 65.488281 13.976562 69.71875 C 36.714844 42.1875 71.625 22.53125 107.863281 34.683594 C 108.996094 35.0625 108.726562 36.886719 107.503906 36.566406 C 69.902344 26.714844 35.226562 46.351562 13.378906 76.410156 C 13.378906 76.460938 13.375 76.503906 13.371094 76.550781 C 17.472656 74.804688 21.570312 73.054688 25.703125 71.378906 C 27.929688 70.472656 29.03125 73.921875 26.890625 74.871094 C 21.933594 77.074219 16.933594 79.175781 11.9375 81.300781 C 10.902344 81.738281 9.355469 80.820312 9.421875 79.625 Z M 9.417969 79.632812 " fill-opacity="1" fill-rule="nonzero"/></g></g></g></g></g></g></g><g clip-path="url(#af14c3236e)"><g clip-path="url(#c16af5b82d)"><g clip-path="url(#041f07e430)"><path fill="#ffe7c9" d="M 56.324219 165.046875 L 155.457031 107.917969 C 155.726562 107.761719 156.011719 107.632812 156.308594 107.53125 C 156.605469 107.429688 156.910156 107.359375 157.222656 107.320312 C 157.53125 107.277344 157.84375 107.269531 158.15625 107.289062 C 158.46875 107.308594 158.777344 107.359375 159.082031 107.441406 C 159.382812 107.523438 159.675781 107.632812 159.957031 107.773438 C 160.238281 107.910156 160.503906 108.078125 160.75 108.269531 C 161 108.460938 161.226562 108.671875 161.433594 108.910156 C 161.640625 109.144531 161.820312 109.398438 161.976562 109.671875 C 162.136719 109.941406 162.261719 110.226562 162.363281 110.523438 C 162.464844 110.820312 162.535156 111.125 162.574219 111.433594 C 162.617188 111.746094 162.625 112.058594 162.605469 112.371094 C 162.585938 112.683594 162.535156 112.992188 162.453125 113.292969 C 162.371094 113.597656 162.261719 113.890625 162.121094 114.171875 C 161.984375 114.453125 161.816406 114.714844 161.628906 114.964844 C 161.4375 115.214844 161.222656 115.441406 160.988281 115.648438 C 160.75 115.855469 160.496094 116.035156 160.226562 116.191406 L 61.09375 173.324219 C 60.824219 173.480469 60.539062 173.609375 60.242188 173.710938 C 59.945312 173.808594 59.640625 173.878906 59.328125 173.921875 C 59.019531 173.960938 58.707031 173.972656 58.394531 173.949219 C 58.082031 173.929688 57.773438 173.878906 57.46875 173.796875 C 57.167969 173.714844 56.875 173.605469 56.59375 173.46875 C 56.3125 173.328125 56.046875 173.164062 55.800781 172.972656 C 55.550781 172.78125 55.324219 172.566406 55.117188 172.332031 C 54.910156 172.097656 54.726562 171.84375 54.570312 171.570312 C 54.414062 171.296875 54.285156 171.015625 54.1875 170.71875 C 54.085938 170.421875 54.015625 170.117188 53.972656 169.804688 C 53.933594 169.496094 53.921875 169.183594 53.945312 168.871094 C 53.964844 168.558594 54.015625 168.25 54.097656 167.945312 C 54.179688 167.644531 54.289062 167.351562 54.429688 167.070312 C 54.566406 166.789062 54.730469 166.523438 54.921875 166.277344 C 55.113281 166.027344 55.328125 165.800781 55.5625 165.59375 C 55.800781 165.386719 56.054688 165.203125 56.324219 165.046875 Z M 56.324219 165.046875 " fill-opacity="1" fill-rule="nonzero"/></g></g></g><g clip-path="url(#b02b30d617)"><g clip-path="url(#47bb3c3d72)"><g clip-path="url(#e32ec37769)"><path fill="#0158c8" d="M 56.324219 165.046875 L 97.179688 141.503906 C 97.449219 141.347656 97.734375 141.21875 98.03125 141.117188 C 98.328125 141.015625 98.632812 140.945312 98.941406 140.90625 C 99.253906 140.867188 99.566406 140.855469 99.878906 140.875 C 100.191406 140.898438 100.5 140.949219 100.800781 141.03125 C 101.105469 141.109375 101.398438 141.222656 101.679688 141.359375 C 101.960938 141.5 102.222656 141.664062 102.472656 141.855469 C 102.722656 142.046875 102.949219 142.257812 103.15625 142.496094 C 103.363281 142.730469 103.542969 142.984375 103.699219 143.257812 C 103.855469 143.527344 103.984375 143.8125 104.085938 144.109375 C 104.1875 144.40625 104.257812 144.710938 104.296875 145.023438 C 104.339844 145.332031 104.347656 145.644531 104.328125 145.957031 C 104.308594 146.269531 104.257812 146.578125 104.175781 146.882812 C 104.09375 147.183594 103.984375 147.476562 103.84375 147.757812 C 103.707031 148.039062 103.539062 148.304688 103.347656 148.550781 C 103.15625 148.800781 102.945312 149.027344 102.707031 149.234375 C 102.472656 149.441406 102.21875 149.621094 101.945312 149.777344 L 61.09375 173.324219 C 60.824219 173.480469 60.539062 173.609375 60.242188 173.710938 C 59.945312 173.808594 59.640625 173.878906 59.328125 173.921875 C 59.019531 173.960938 58.707031 173.972656 58.394531 173.949219 C 58.082031 173.929688 57.773438 173.878906 57.46875 173.796875 C 57.167969 173.714844 56.875 173.605469 56.59375 173.46875 C 56.3125 173.328125 56.046875 173.164062 55.800781 172.972656 C 55.550781 172.78125 55.324219 172.566406 55.117188 172.332031 C 54.910156 172.097656 54.726562 171.84375 54.570312 171.570312 C 54.414062 171.296875 54.285156 171.015625 54.1875 170.71875 C 54.085938 170.421875 54.015625 170.117188 53.972656 169.804688 C 53.933594 169.496094 53.921875 169.183594 53.945312 168.871094 C 53.964844 168.558594 54.015625 168.25 54.097656 167.945312 C 54.179688 167.644531 54.289062 167.351562 54.429688 167.070312 C 54.566406 166.789062 54.730469 166.523438 54.921875 166.277344 C 55.113281 166.027344 55.328125 165.800781 55.5625 165.59375 C 55.800781 165.386719 56.054688 165.203125 56.324219 165.046875 Z M 56.324219 165.046875 " fill-opacity="1" fill-rule="nonzero"/></g></g></g><g fill="#74cc00" fill-opacity="1"><g transform="translate(295.909961, 35.000641)"><g><path d="M 8.9375 2.0625 C 7.332031 1.769531 5.992188 1.242188 4.921875 0.484375 C 3.859375 -0.265625 3.101562 -1.1875 2.65625 -2.28125 C 2.207031 -3.375 2.109375 -4.582031 2.359375 -5.90625 L 6.640625 -5.09375 C 6.472656 -4.1875 6.65625 -3.414062 7.1875 -2.78125 C 7.726562 -2.144531 8.523438 -1.726562 9.578125 -1.53125 C 10.503906 -1.351562 11.265625 -1.394531 11.859375 -1.65625 C 12.460938 -1.914062 12.828125 -2.367188 12.953125 -3.015625 C 13.078125 -3.691406 12.851562 -4.300781 12.28125 -4.84375 C 11.71875 -5.382812 10.785156 -5.929688 9.484375 -6.484375 C 7.328125 -7.378906 5.789062 -8.410156 4.875 -9.578125 C 3.96875 -10.753906 3.660156 -12.128906 3.953125 -13.703125 C 4.273438 -15.453125 5.175781 -16.710938 6.65625 -17.484375 C 8.132812 -18.265625 9.988281 -18.445312 12.21875 -18.03125 C 13.726562 -17.75 14.992188 -17.242188 16.015625 -16.515625 C 17.035156 -15.785156 17.765625 -14.890625 18.203125 -13.828125 C 18.648438 -12.773438 18.75 -11.597656 18.5 -10.296875 L 14.296875 -11.078125 C 14.460938 -11.941406 14.304688 -12.671875 13.828125 -13.265625 C 13.347656 -13.859375 12.601562 -14.253906 11.59375 -14.453125 C 10.675781 -14.617188 9.921875 -14.578125 9.328125 -14.328125 C 8.734375 -14.078125 8.375 -13.628906 8.25 -12.984375 C 8.144531 -12.398438 8.347656 -11.847656 8.859375 -11.328125 C 9.367188 -10.816406 10.320312 -10.25 11.71875 -9.625 C 14.007812 -8.601562 15.597656 -7.519531 16.484375 -6.375 C 17.378906 -5.226562 17.6875 -3.894531 17.40625 -2.375 C 17.0625 -0.550781 16.132812 0.75 14.625 1.53125 C 13.125 2.3125 11.226562 2.488281 8.9375 2.0625 Z M 8.9375 2.0625 "/></g></g></g><g fill="#74cc00" fill-opacity="1"><g transform="translate(313.527275, 38.28036)"><g><path d="M 2.09375 0.390625 L 4.78125 -14.046875 L 8.953125 -13.265625 L 6.265625 1.171875 Z M 5.53125 -16.015625 L 7.40625 -20.21875 L 11.203125 -19.515625 L 8.640625 -15.4375 Z M 5.53125 -16.015625 "/></g></g></g><g fill="#ff2828" fill-opacity="1"><g transform="translate(75.7763, 51.501203)"><g><path d="M 2.21875 -0.765625 L -4.21875 -19.25 L -0.65625 -20.5 L 11.421875 -12.09375 L 7.5 -23.34375 L 11.6875 -24.796875 L 18.125 -6.3125 L 14.546875 -5.0625 L 2.4375 -13.5625 L 6.390625 -2.234375 Z M 2.21875 -0.765625 "/></g></g></g><g fill="#ff2828" fill-opacity="1"><g transform="translate(96.103512, 44.416786)"><g><path d="M 8.953125 -2.703125 C 7.410156 -2.160156 5.945312 -1.992188 4.5625 -2.203125 C 3.1875 -2.410156 1.972656 -2.953125 0.921875 -3.828125 C -0.117188 -4.703125 -0.890625 -5.863281 -1.390625 -7.3125 C -1.890625 -8.757812 -2 -10.140625 -1.71875 -11.453125 C -1.4375 -12.773438 -0.820312 -13.945312 0.125 -14.96875 C 1.070312 -15.988281 2.316406 -16.769531 3.859375 -17.3125 C 5.390625 -17.84375 6.847656 -18.003906 8.234375 -17.796875 C 9.628906 -17.585938 10.835938 -17.050781 11.859375 -16.1875 C 12.890625 -15.332031 13.65625 -14.179688 14.15625 -12.734375 C 14.65625 -11.285156 14.773438 -9.894531 14.515625 -8.5625 C 14.253906 -7.226562 13.644531 -6.050781 12.6875 -5.03125 C 11.726562 -4.007812 10.484375 -3.234375 8.953125 -2.703125 Z M 2.5625 -8.6875 C 2.957031 -7.550781 3.632812 -6.742188 4.59375 -6.265625 C 5.5625 -5.796875 6.613281 -5.757812 7.75 -6.15625 C 8.863281 -6.539062 9.648438 -7.21875 10.109375 -8.1875 C 10.566406 -9.164062 10.597656 -10.222656 10.203125 -11.359375 C 9.804688 -12.492188 9.128906 -13.289062 8.171875 -13.75 C 7.210938 -14.21875 6.175781 -14.257812 5.0625 -13.875 C 3.925781 -13.476562 3.125 -12.796875 2.65625 -11.828125 C 2.195312 -10.867188 2.164062 -9.820312 2.5625 -8.6875 Z M 2.5625 -8.6875 "/></g></g></g></svg>