<svg xmlns="http://www.w3.org/2000/svg" xmlns:xlink="http://www.w3.org/1999/xlink" width="1920" zoomAndPan="magnify" viewBox="0 0 1440 809.999993" height="1080" preserveAspectRatio="xMidYMid meet" version="1.0"><defs><clipPath id="a3c3332a36"><path d="M 666 141 L 774 141 L 774 701.824219 L 666 701.824219 Z M 666 141 " clip-rule="nonzero"/></clipPath></defs><g clip-path="url(#a3c3332a36)"><path fill="#c4bdb5" d="M 772.671875 324.234375 C 772.671875 324.234375 778.859375 265.847656 759.996094 146.417969 C 759.554688 144.058594 757.785156 141.996094 755.429688 141.699219 C 752.039062 141.257812 749.238281 143.914062 749.238281 147.15625 L 751.597656 297.105469 C 751.597656 300.054688 749.238281 302.558594 746.289062 302.558594 C 743.492188 302.558594 741.132812 300.347656 740.984375 297.398438 L 735.386719 145.09375 C 735.386719 143.324219 734.058594 141.847656 732.289062 141.699219 C 730.375 141.554688 728.605469 143.027344 728.605469 144.945312 L 725.804688 296.367188 C 725.804688 299.464844 723.449219 302.117188 720.5 302.410156 C 716.964844 302.707031 714.015625 300.054688 714.015625 296.660156 L 711.363281 145.238281 C 711.363281 143.46875 710.039062 141.996094 708.417969 141.847656 C 706.5 141.699219 704.730469 143.175781 704.730469 145.09375 L 699.277344 297.398438 C 699.132812 299.90625 697.363281 302.117188 695.003906 302.558594 C 691.617188 303.148438 688.667969 300.496094 688.667969 297.25 L 690.878906 147.453125 C 690.878906 144.648438 688.964844 142.144531 686.308594 141.699219 C 683.363281 141.257812 680.710938 143.324219 680.269531 146.273438 C 661.109375 265.847656 667.445312 324.234375 667.445312 324.234375 C 669.066406 343.253906 679.238281 352.6875 687.34375 357.261719 C 698.835938 363.746094 706.207031 376.132812 706.058594 389.402344 C 706.058594 389.550781 706.058594 389.550781 706.058594 389.695312 L 705.46875 456.046875 C 704.4375 489.515625 696.183594 546.132812 690.585938 580.042969 C 688.375 593.753906 685.722656 607.320312 682.921875 620.882812 C 667.59375 695.046875 701.785156 701.386719 715.046875 701.09375 C 718.4375 701.09375 721.679688 701.09375 725.070312 701.09375 C 738.332031 701.386719 772.523438 695.046875 757.050781 620.882812 C 754.25 607.320312 751.597656 593.753906 749.386719 580.042969 C 743.933594 545.984375 735.53125 489.367188 734.5 456.046875 L 733.910156 389.695312 C 733.910156 389.550781 733.910156 389.550781 733.910156 389.402344 C 733.910156 376.132812 741.132812 363.746094 752.628906 357.261719 C 760.878906 352.6875 771.050781 343.253906 772.671875 324.234375 Z M 772.671875 324.234375 " fill-opacity="1" fill-rule="nonzero"/></g><path fill="#939393" d="M 755.28125 141.699219 C 757.636719 141.996094 759.554688 144.058594 759.847656 146.417969 C 772.523438 225.742188 773.996094 278.085938 773.554688 304.328125 C 773.996094 250.363281 755.28125 141.699219 755.28125 141.699219 Z M 688.519531 297.105469 L 690.878906 147.453125 C 690.878906 144.648438 688.964844 142.144531 686.308594 141.699219 Z M 714.015625 296.660156 L 711.363281 145.238281 C 711.363281 143.46875 710.039062 141.996094 708.417969 141.847656 Z M 740.984375 297.398438 L 735.386719 145.09375 C 735.386719 143.324219 734.058594 141.847656 732.289062 141.699219 Z M 740.984375 297.398438 " fill-opacity="1" fill-rule="nonzero"/><path fill="#e0e0e0" d="M 706.058594 389.402344 C 706.058594 376.132812 698.835938 363.746094 687.34375 357.261719 L 752.773438 357.261719 C 741.132812 363.746094 733.910156 376.132812 734.058594 389.402344 Z M 745.257812 616.3125 C 745.257812 616.3125 726.691406 520.917969 727.425781 482.730469 L 727.425781 404.589844 C 727.425781 400.460938 724.039062 397.070312 719.910156 397.070312 C 715.785156 397.070312 712.394531 400.460938 712.394531 404.589844 L 712.394531 482.730469 C 713.132812 520.773438 694.5625 616.3125 694.5625 616.3125 C 678.203125 695.785156 719.765625 692.539062 719.765625 692.539062 C 719.765625 692.539062 761.617188 695.785156 745.257812 616.3125 Z M 745.257812 616.3125 " fill-opacity="0.68" fill-rule="nonzero"/><path fill="#b5afa9" d="M 687.34375 357.261719 C 679.238281 352.6875 669.066406 343.253906 667.445312 324.234375 L 772.671875 324.234375 C 771.050781 343.253906 760.878906 352.6875 752.773438 357.261719 Z M 720.058594 692.539062 C 720.058594 692.539062 761.617188 695.785156 745.257812 616.3125 C 745.257812 616.3125 726.691406 520.917969 727.425781 482.730469 L 727.425781 404.589844 C 727.425781 400.460938 724.039062 397.070312 719.910156 397.070312 C 719.910156 397.070312 725.511719 400.019531 725.511719 404.734375 L 725.511719 482.585938 C 725.511719 482.585938 725.804688 502.34375 726.835938 509.417969 C 726.835938 509.417969 732.878906 557.484375 733.617188 562.351562 L 739.660156 598.769531 L 744.816406 630.171875 C 744.964844 630.320312 751.890625 686.496094 720.058594 692.539062 Z M 720.058594 692.539062 " fill-opacity="1" fill-rule="nonzero"/></svg>